<svg xmlns="http://www.w3.org/2000/svg" xmlns:xlink="http://www.w3.org/1999/xlink" width="800" height="578.854" viewBox="0 0 800 578.854">
  <defs>
    <linearGradient id="linear-gradient" x1="0.5" y1="1" x2="0.5" gradientUnits="objectBoundingBox">
      <stop offset="0" stop-color="gray" stop-opacity="0.251"/>
      <stop offset="0.54" stop-color="gray" stop-opacity="0.122"/>
      <stop offset="1" stop-color="gray" stop-opacity="0.102"/>
    </linearGradient>
    <linearGradient id="linear-gradient-2" x1="0.799" y1="1" x2="0.799" y2="0" xlink:href="#linear-gradient"/>
  </defs>
  <g id="Group_6" data-name="Group 6" transform="translate(675 316)">
    <g id="Group_5" data-name="Group 5">
      <path id="Path_183" data-name="Path 183" d="M779.246,402.293c-25.3,41.37-20.824,97.56-9.985,141.867,3.628,14.836,7.819,30.48,4.592,47.1-3.947,20.325-18.086,36.348-32.367,45.516-26.039,16.727-55.683,16.386-77.152-.883-18.583-14.925-30.749-41.036-49.7-55.152-31.758-23.626-75.5-9.035-113.547,13.352-26.921,15.83-56.551,35.865-81.306,24.7-17.418-7.856-28.19-30.183-33.183-54.514-2.4-11.742-3.828-24.575-9.414-33.514-3.323-5.311-7.908-8.857-12.663-11.757-43.405-26.46-102.374-3.931-144.207-33.922-28.257-20.258-44.2-62.266-49.3-107.24s-.586-93.154,5.037-140.591c4.021-33.707,9.421-69.8,26.959-97.286,18.546-29.071,47.656-42.141,72.893-39.537s47.092,18.8,65.905,38.573c23.516,24.716,44.674,56.324,75.208,64.194,20.772,5.363,43.561-1.046,65.69-4.71,37-6.127,73.442-4.569,109.615-2.485,34.637,2,69.488,4.532,101.721,16.787,22.812,8.672,40.267,26.853,61.536,38.632,13.865,7.678,29.54,8.59,42.448,18.856a64.943,64.943,0,0,1,23.086,65.73C814.921,364.239,792.666,380.344,779.246,402.293Z" transform="translate(-763.685 -386.238)" fill="#6c63ff" opacity="0.1"/>
      <path id="Path_184" data-name="Path 184" d="M340.84,278.845s-109.1-24.394,29.717-167.115c0,0,59.835,56.713,37.888,127.21-8.823,28.346-37.221,45.844-65.989,40.238Z" transform="translate(-797.541 -389.241)" fill="#61b087"/>
      <path id="Path_185" data-name="Path 185" d="M340.959,278.845c-2.395-.534-106.769-26.8,29.717-167.115,0,0,59.835,56.713,37.888,127.21-8.823,28.346-37.221,45.844-65.989,40.238Z" transform="translate(-797.661 -389.241)" fill="#ffc038" opacity="0.4"/>
      <path id="Path_186" data-name="Path 186" d="M357,279.663s57.625-86.809,28.286-167.923" transform="translate(-812.246 -389.244)" fill="none" stroke="#535461" stroke-miterlimit="10" stroke-width="1"/>
      <path id="Path_187" data-name="Path 187" d="M958.238,367.642s-18.8-75.709,9.691-129.613a118.164,118.164,0,0,0,12.723-73.67,198.77,198.77,0,0,0-9-35.219" transform="translate(-965.875 -393.742)" fill="none" stroke="#535461" stroke-miterlimit="10" stroke-width="2"/>
      <path id="Path_188" data-name="Path 188" d="M990.827,77.14c-.393,9.164-18.121,35.019-18.121,35.019s-15.452-27.278-15.059-36.442a16.607,16.607,0,1,1,33.183,1.424Z" transform="translate(-967.295 -375.82)" fill="#6c63ff"/>
      <path id="Path_189" data-name="Path 189" d="M1024.517,144.066c-5.309,7.481-34.247,19.552-34.247,19.552s1.854-31.3,7.162-38.778a16.606,16.606,0,1,1,27.081,19.228Z" transform="translate(-975.731 -390.822)" fill="#6c63ff"/>
      <path id="Path_190" data-name="Path 190" d="M1016.08,259.04c-8.356,3.774-39.43-.408-39.43-.408s17.4-26.077,25.758-29.858a16.607,16.607,0,1,1,13.674,30.269Z" transform="translate(-972.21 -419.064)" fill="#6c63ff"/>
      <path id="Path_191" data-name="Path 191" d="M991.324,346.839c-7.6,5.131-38.934,6.258-38.934,6.258s12.746-28.642,20.345-33.78a16.607,16.607,0,1,1,18.59,27.525Z" transform="translate(-965.937 -442.088)" fill="#6c63ff"/>
      <path id="Path_192" data-name="Path 192" d="M941.608,170.232c6.295,6.673,36.635,14.592,36.635,14.592s-6.2-30.733-12.493-37.4a16.607,16.607,0,1,0-24.144,22.809Z" transform="translate(-961.976 -397.124)" fill="#6c63ff"/>
      <path id="Path_193" data-name="Path 193" d="M912.485,271.672c8.008,4.449,39.3,2.966,39.3,2.966s-15.074-27.478-23.089-31.949a16.608,16.608,0,0,0-16.208,28.983Z" transform="translate(-953.568 -422.541)" fill="#6c63ff"/>
      <path id="Path_194" data-name="Path 194" d="M899.767,375.484c7.133,5.761,38.251,9.565,38.251,9.565s-10.247-29.658-17.38-35.4a16.607,16.607,0,1,0-20.874,25.835Z" transform="translate(-950.799 -449.703)" fill="#6c63ff"/>
      <path id="Path_195" data-name="Path 195" d="M990.827,77.14c-.393,9.164-18.121,35.019-18.121,35.019s-15.452-27.278-15.059-36.442a16.607,16.607,0,1,1,33.183,1.424Z" transform="translate(-967.295 -375.82)" fill="#ff834c"/>
      <path id="Path_196" data-name="Path 196" d="M1024.517,144.066c-5.309,7.481-34.247,19.552-34.247,19.552s1.854-31.3,7.162-38.778a16.606,16.606,0,1,1,27.081,19.228Z" transform="translate(-975.731 -390.822)" fill="#ff834c"/>
      <path id="Path_197" data-name="Path 197" d="M1016.08,259.04c-8.356,3.774-39.43-.408-39.43-.408s17.4-26.077,25.758-29.858a16.607,16.607,0,1,1,13.674,30.269Z" transform="translate(-972.21 -419.064)" fill="#ff834c"/>
      <path id="Path_198" data-name="Path 198" d="M991.324,346.839c-7.6,5.131-38.934,6.258-38.934,6.258s12.746-28.642,20.345-33.78a16.607,16.607,0,1,1,18.59,27.525Z" transform="translate(-965.937 -442.088)" fill="#fc6681"/>
      <path id="Path_199" data-name="Path 199" d="M941.608,170.232c6.295,6.673,36.635,14.592,36.635,14.592s-6.2-30.733-12.493-37.4a16.607,16.607,0,1,0-24.144,22.809Z" transform="translate(-961.976 -397.124)" fill="#ff834c"/>
      <path id="Path_200" data-name="Path 200" d="M912.485,271.672c8.008,4.449,39.3,2.966,39.3,2.966s-15.074-27.478-23.089-31.949a16.608,16.608,0,0,0-16.208,28.983Z" transform="translate(-953.568 -422.541)" fill="#ff834c"/>
      <path id="Path_201" data-name="Path 201" d="M899.767,375.484c7.133,5.761,38.251,9.565,38.251,9.565s-10.247-29.658-17.38-35.4a16.607,16.607,0,1,0-20.874,25.835Z" transform="translate(-950.799 -449.703)" fill="#fc6681"/>
      <path id="Path_202" data-name="Path 202" d="M867.52,328.56s78.86-66.085,96.388-99.413,39.868-62.037,39.868-62.037" transform="translate(-943.994 -403.56)" fill="none" stroke="#535461" stroke-miterlimit="10" stroke-width="2"/>
      <path id="Path_203" data-name="Path 203" d="M1025.447,264.886l-34.107-7.7S999.377,293.18,1025.447,264.886Z" transform="translate(-976.008 -426.784)" fill="#61b087"/>
      <path id="Path_204" data-name="Path 204" d="M965.2,218l19.634,29.406S946.475,250.194,965.2,218Z" transform="translate(-967.918 -416.664)" fill="#61b087"/>
      <path id="Path_205" data-name="Path 205" d="M1044.565,228.382l-31.185-5.472S1032.977,252.709,1044.565,228.382Z" transform="translate(-981.706 -417.933)" fill="#61b087"/>
      <path id="Path_206" data-name="Path 206" d="M992.2,194.86l15.392,20.123S980.342,217.548,992.2,194.86Z" transform="translate(-975.457 -410.689)" fill="#61b087"/>
      <path id="Path_207" data-name="Path 207" d="M1035.14,189.45s26.581,1.268,29.658,3.8-3.959,17.409-14.088,14.985S1035.14,189.45,1035.14,189.45Z" transform="translate(-987.332 -409.336)" fill="#61b087"/>
      <path id="Path_208" data-name="Path 208" d="M1017.372,157.44s10.847,19.767,10.44,23.526-16.527,7.985-19.789-6.265S1017.372,157.44,1017.372,157.44Z" transform="translate(-980.182 -401.06)" fill="#61b087"/>
      <circle id="Ellipse_14" data-name="Ellipse 14" cx="7.414" cy="7.414" r="7.414" transform="translate(56.384 -228.211) rotate(-72.43)" fill="#ffc038"/>
      <circle id="Ellipse_15" data-name="Ellipse 15" cx="7.414" cy="7.414" r="7.414" transform="translate(44.782 -235.773) rotate(-72.43)" fill="#ffc038"/>
      <path id="Path_209" data-name="Path 209" d="M346.938,325.779s31.882-23.726-8.156-106.769c0,0-53.384-65.989,0-128.271,0,0-116.407,2.966-114.183,111.217s58.2,123.822,58.2,123.822Z" transform="translate(-778.042 -383.814)" fill="#61b087"/>
      <path id="Path_210" data-name="Path 210" d="M335.212,325.772s-8.03-57.092-29.532-91.94a74.745,74.745,0,0,1-9.038-22.792c-7.185-31.608,3.062-64.662,26.277-87.283L356.84,90.71" transform="translate(-796.074 -383.806)" fill="none" stroke="#535461" stroke-miterlimit="10" stroke-width="2"/>
      <path id="Path_211" data-name="Path 211" d="M472.134,150.69s7.326,9.58-3.381,24.038-19.53,26.692-15.963,35.679c0,0,16.149-26.855,29.295-27.233S486.592,166.839,472.134,150.69Z" transform="translate(-836.772 -399.314)" fill="#61b087"/>
      <path id="Path_212" data-name="Path 212" d="M472.275,150.69a11.862,11.862,0,0,1,1.483,3c12.827,15.066,19.656,29.132,7.333,29.487-11.485.326-25.261,20.864-28.561,26.047a11.128,11.128,0,0,0,.393,1.179s16.149-26.855,29.295-27.233S486.733,166.839,472.275,150.69Z" transform="translate(-836.913 -399.314)" opacity="0.1"/>
      <path id="Path_213" data-name="Path 213" d="M496.93,166.4c0,3.374-.378,6.1-.845,6.1s-.845-2.736-.845-6.1.475-1.787.942-1.787S496.93,163.032,496.93,166.4Z" transform="translate(-847.948 -402.818)" fill="#ffd037"/>
      <path id="Path_214" data-name="Path 214" d="M501.806,171.775c-2.966,1.616-5.539,2.588-5.761,2.18s1.994-2.046,4.953-3.663,1.794-.437,2.017,0S504.764,170.159,501.806,171.775Z" transform="translate(-848.15 -404.169)" fill="#ffd037"/>
      <path id="Path_215" data-name="Path 215" d="M421.268,150.69s-7.326,9.58,3.381,24.038,19.53,26.692,15.963,35.679c0,0-16.149-26.855-29.295-27.233S406.8,166.839,421.268,150.69Z" transform="translate(-824.597 -399.314)" fill="#61b087"/>
      <path id="Path_216" data-name="Path 216" d="M421.265,150.69a11.863,11.863,0,0,0-1.483,3c-12.827,15.066-19.656,29.132-7.333,29.487,11.485.326,25.261,20.864,28.561,26.047a11.107,11.107,0,0,1-.393,1.179S424.445,183.544,411.3,183.18,406.791,166.839,421.265,150.69Z" transform="translate(-824.593 -399.314)" opacity="0.1"/>
      <path id="Path_217" data-name="Path 217" d="M408.62,166.4c0,3.374.378,6.1.845,6.1s.845-2.736.845-6.1-.475-1.787-.942-1.787S408.62,163.032,408.62,166.4Z" transform="translate(-825.58 -402.818)" fill="#ffd037"/>
      <path id="Path_218" data-name="Path 218" d="M401.692,171.775c2.966,1.616,5.539,2.588,5.761,2.18s-1.995-2.046-4.953-3.663-1.794-.437-2.017,0S398.734,170.159,401.692,171.775Z" transform="translate(-823.325 -404.169)" fill="#ffd037"/>
      <path id="Path_219" data-name="Path 219" d="M860.75,574.161,795.763,288.348H771.619c-.964-10.922-1.61-21.5-1.854-31.467,0,0-87.529,19.144-157.33-36.242s-151.863,4.79-151.863,4.79l-.319-.23v.03c-5.7-4.033-84.31-57.885-151.522-4.545C238.96,276.069,151.4,256.925,151.4,256.925c-.245,10.091-.9,20.761-1.884,31.786h-22.4L60.75,575.192s269.782,10.1,364.321.786c3.39,7.162,18,12.545,35.509,12.545,19.672,0,35.672-6.8,36.228-15.274C570.4,578.847,728.752,587.8,860.75,574.161Z" transform="translate(-735.75 -411.09)" fill="url(#linear-gradient)"/>
      <path id="Path_220" data-name="Path 220" d="M136.972,323.406,72,603.926s357.663,13.391,386.466-5.353c0,0,222.036,22.429,396.851,4.352L791.688,323.08Z" transform="translate(-738.659 -443.718)" fill="#c2d7d8"/>
      <path id="Path_221" data-name="Path 221" d="M168.306,336.481,107.73,598.013s333.47,12.486,360.323-4.99c0,0,207.015,20.909,370,4.056L778.712,336.17Z" transform="translate(-747.897 -447.105)" opacity="0.1"/>
      <path id="Path_222" data-name="Path 222" d="M778.509,261.165s-85.738,18.744-154.059-35.486-148.7,4.686-148.7,4.686-80.375-58.916-148.7-4.686-154.059,35.486-154.059,35.486c-2.7,109.126-53.581,285.873-53.581,285.873s93.772,25.439,217.692-26.106,138.652,18.077,138.652,18.077,14.732-69.629,138.652-18.077S832.1,547.038,832.1,547.038,781.187,370.291,778.509,261.165Z" transform="translate(-750.917 -412.654)" fill="#c2d7d8"/>
      <path id="Path_223" data-name="Path 223" d="M376.75,654.982S489.9,629.543,542.093,667.03c0,0,50.211-45.525,166.7-10.039" transform="translate(-817.278 -526.524)" opacity="0.1"/>
      <ellipse id="Ellipse_16" data-name="Ellipse 16" cx="35.486" cy="15.4" rx="35.486" ry="15.4" transform="translate(-310.656 142.507)" fill="#e8eaf8"/>
      <path id="Path_224" data-name="Path 224" d="M599.32,239.55s25.439,129.317.667,311.564" transform="translate(-874.822 -422.289)" opacity="0.1"/>
      <path id="Path_225" data-name="Path 225" d="M224.7,326.927s53.288,12.382,99.413,0,130.814-52.888,158.67,0" transform="translate(-778.061 -437.945)" fill="none" stroke="#000" stroke-miterlimit="10" stroke-width="4" opacity="0.1"/>
      <path id="Path_226" data-name="Path 226" d="M224.7,363.718s53.288,12.382,99.413,0,146-11.715,158.67,0" transform="translate(-778.061 -451.959)" fill="none" stroke="#000" stroke-miterlimit="10" stroke-width="4" opacity="0.1"/>
      <path id="Path_227" data-name="Path 227" d="M224.7,411.757s53.288,12.382,99.413,0,130.814-52.888,158.67,0" transform="translate(-778.061 -459.849)" fill="none" stroke="#000" stroke-miterlimit="10" stroke-width="4" opacity="0.1"/>
      <path id="Path_228" data-name="Path 228" d="M224.7,448.588s53.288,12.382,99.413,0,146-11.715,158.67,0" transform="translate(-778.061 -473.874)" fill="none" stroke="#000" stroke-miterlimit="10" stroke-width="4" opacity="0.1"/>
      <path id="Path_229" data-name="Path 229" d="M884.854,326.927s-53.288,12.382-99.414,0-130.814-52.888-158.67,0" transform="translate(-881.826 -437.945)" fill="none" stroke="#000" stroke-miterlimit="10" stroke-width="4" opacity="0.1"/>
      <path id="Path_230" data-name="Path 230" d="M884.854,363.718s-53.288,12.382-99.414,0-146-11.715-158.67,0" transform="translate(-881.826 -451.959)" fill="none" stroke="#000" stroke-miterlimit="10" stroke-width="4" opacity="0.1"/>
      <path id="Path_231" data-name="Path 231" d="M884.854,411.757s-53.288,12.382-99.414,0-130.814-52.888-158.67,0" transform="translate(-881.826 -459.849)" fill="none" stroke="#000" stroke-miterlimit="10" stroke-width="4" opacity="0.1"/>
      <path id="Path_232" data-name="Path 232" d="M884.854,448.588s-53.288,12.382-99.414,0-146-11.715-158.67,0" transform="translate(-881.826 -473.874)" fill="none" stroke="#000" stroke-miterlimit="10" stroke-width="4" opacity="0.1"/>
      <path id="Path_233" data-name="Path 233" d="M959.459,769.949c2.224-1.7,4.337-3.707,4.983-6.132a5.19,5.19,0,0,0-3.477-6.243c-3.2-.994-6.606.808-9.2,2.632s-5.553,3.907-8.942,3.522c3.507-2.536,5.19-6.673,4.211-10.38a4.027,4.027,0,0,0-1.172-2.113c-1.772-1.55-4.99-.882-7.111.334-6.755,3.878-8.638,11.359-8.675,18.1-.682-2.432-.1-4.96-.126-7.459s-.853-5.257-3.433-6.6a12.271,12.271,0,0,0-5.235-1c-3.032-.089-6.421.156-8.49,1.972-2.573,2.224-1.906,6.028.334,8.5s5.65,4.034,8.786,5.746c2.395,1.3,4.812,2.825,6.28,4.886a4.445,4.445,0,0,1,.467.875h19.033a54.715,54.715,0,0,0,11.767-6.643Z" transform="translate(-955.271 -554.101)" fill="#61b087"/>
      <path id="Path_234" data-name="Path 234" d="M794.789,351.556s.185,1.068.5,2.967c-.163.3-.326.593-.5.883-6.08,10.237-7.014,24.985-6.443,37.092a121.423,121.423,0,0,0,5.094,28.783,134.611,134.611,0,0,1,5.19,37.389,27.169,27.169,0,0,0,8.512,6.2c.163.5.334,1,.482,1.484A151.725,151.725,0,0,1,813.281,495l1.913,24.228s14.658,54.837,19.115,65.037c3.173,7.255,2.477,22.255,1.809,30.3-1.906,5.408-4.226,10.564-6.273,11.128-3.707,1.053-7.414,9.985-2.017,14.473h0a8.6,8.6,0,0,0,1.3.89l.215.119.393.2.578.26.3.111.615.208.267.082c.289.082.586.163.9.237a16.178,16.178,0,0,0,11-1.743,22.19,22.19,0,0,0,10.38-4.993L853.7,639.4h4.449l-.208-7.723c.8-.9,1.246-1.484,1.246-1.484s.133-4.666.645-10.1l-.326,17.426h4.449l-1.2-32.159a5.138,5.138,0,0,1,.882-1.313c3.707-3.709-2.7-15.675-6.013-17.671,1.483-7.864,7.14-19.221,13.665-40.994,9.557-31.9-2.551-63.123-2.551-63.123V457.78c3.211-1.38,5.1-2.322,5.1-2.322s-4.449-26.142,0-44.629c2.884-11.951,3.633-22.567,1.223-32.723,3.2-11.039,5.791-19.562,5.791-19.562l4.449-45.905c1.134-6.892,1.9-12.789,2.387-17.8.082-.623.141-1.254.171-1.877.816-9.34.638-15.579.1-19.659a31.241,31.241,0,0,0,.267-5.645,22.317,22.317,0,0,0,.119-2.915c.638-.742,1.26-1.484,1.854-2.226a31.967,31.967,0,0,0,4-6.38c4.9-9.251,5.042-20.549-1.8-28.7-4.211-5.022-5.524-10.43-9.164-15.779-3.329-4.9-3.959-10.764-4.76-16.4a200.908,200.908,0,0,0-4.078-20.823c-.512-2.018-3.314-3.257-4.708-4.933-2.692-3.242-10.551-3.131-15.081-3.85-7.607-1.209-15.845-2.337-22.77.653-4.819,2.085-8.282,5.875-12.049,9.221-4.056,3.6-12.36,5.334-13.65,9.644-1.149,1.647-1.209,3.709.741,6.469,1.883,2.656,4.849,4.555,7.615,6.543.356.252.69.519,1.038.742a27.1,27.1,0,0,0,14.718,28.665q-.111.723-.245,1.424a85.941,85.941,0,0,1-3.351,12.248c-.823,2.463-10.343,6.766-17.053,9.525a8.526,8.526,0,0,0-2.721-1.877c-5.1-1.276-22.3,8.286-23.578,11.476-.356.89.578,3.353,2.1,6.454a23.015,23.015,0,0,0,.69,4.184c-.378,6.528.3,17.062,3.589,34Zm71.55,7.174c-.237-.453-.482-.912-.741-1.387-7.081-14.325-11.285-37.485-1.142-51.3.9.1,1.809.185,2.714.245.6,18.8.252,49.7.252,49.7s-.4,1.039-1.083,2.737ZM841.063,467.914c1.438,7.233,3.129,15.638,4.708,23.279a61.249,61.249,0,0,1-.371,26.944l-5.991-17.982-1.394-31.639-.089-1.3q1.446-.245,2.869-.527Z" transform="translate(-922.276 -402.857)" fill="url(#linear-gradient-2)"/>
      <path id="Path_235" data-name="Path 235" d="M864.639,588.842a60.221,60.221,0,0,1-.363,26.507,34.279,34.279,0,0,1-1.483,4.856l1.691,68.732.193,7.793a39.223,39.223,0,0,0,4.745.7,21.554,21.554,0,0,0,4.449,0,5.319,5.319,0,0,0,3.485-1.483c.7-.853.845-2.224-.141-4.219a12.544,12.544,0,0,1-1.208-7.081c.059-.682.17-1.4.3-2.143,1.483-7.733,7.022-18.914,13.45-40.327,9.409-31.363-2.506-62.1-2.506-62.1V551.206L856.52,548.07s1.483,7.77,3.522,17.869C861.421,573.057,863.082,581.324,864.639,588.842Z" transform="translate(-941.229 -501.806)" fill="#fdc2cc"/>
      <path id="Path_236" data-name="Path 236" d="M864.639,588.842a60.221,60.221,0,0,1-.363,26.507,34.279,34.279,0,0,1-1.483,4.856l1.691,68.732.193,7.793a39.223,39.223,0,0,0,4.745.7,21.554,21.554,0,0,0,4.449,0,5.319,5.319,0,0,0,3.485-1.483c.7-.853.845-2.224-.141-4.219a12.544,12.544,0,0,1-1.208-7.081c.059-.682.17-1.4.3-2.143,1.483-7.733,7.022-18.914,13.45-40.327,9.409-31.363-2.506-62.1-2.506-62.1V551.206L856.52,548.07s1.483,7.77,3.522,17.869C861.421,573.057,863.082,581.324,864.639,588.842Z" transform="translate(-941.229 -501.806)" opacity="0.1"/>
      <path id="Path_237" data-name="Path 237" d="M809.94,552.3a94.179,94.179,0,0,1,5.094,13.22A149.193,149.193,0,0,1,820.6,593.7l1.883,23.838s14.429,53.94,18.818,63.98c3.121,7.14,2.439,21.9,1.779,29.821-.267,3.218-.526,5.309-.526,5.309l6.4-7.837,8.386-10.284,3.826-4.693L862,692.8a38.56,38.56,0,0,1-2.447-6.547h0a111.914,111.914,0,0,1-3.818-21.02c-1.883-19.441-2.506-45.792-2.506-45.792l-.994-2.966-5.932-17.728-1.372-31.141-.512-11.53Z" transform="translate(-929.196 -502.9)" fill="#fdc2cc"/>
      <path id="Path_238" data-name="Path 238" d="M868.214,733.294a44.636,44.636,0,0,0-7.459,14.747c-1.994,6.784-5.5,17.209-8.445,18.047-4.389,1.253-8.779,13.8,2.506,16.312s20.7-10.039,20.7-10.039.63-21.954,4.389-25.714-3.136-16.312-6.273-17.565C872.381,728.571,870.26,730.647,868.214,733.294Z" transform="translate(-938.943 -548.587)" fill="#5f5d7e"/>
      <path id="Path_239" data-name="Path 239" d="M851.987,780.521a15.1,15.1,0,0,0,8.808-.8,19.685,19.685,0,0,0,12.323-16.912c.534-6.718,1.661-15.748,3.952-18.039,2.966-2.966-.741-11.418-3.93-15.459a1.7,1.7,0,0,1,1.416-.222c3.136,1.253,10.039,13.8,6.273,17.565s-4.389,25.713-4.389,25.713-9.394,12.545-20.686,10.024a10.379,10.379,0,0,1-4.493-2.069C851.5,780.4,851.735,780.462,851.987,780.521Z" transform="translate(-939.873 -548.591)" opacity="0.1"/>
      <path id="Path_240" data-name="Path 240" d="M888.841,753.106l1.209,32.4H885.66l.608-32.379a1.246,1.246,0,0,1,1.29-1.179h0a1.246,1.246,0,0,1,1.283,1.157Z" transform="translate(-948.764 -554.519)" fill="#5f5d7e"/>
      <path id="Path_241" data-name="Path 241" d="M888.841,753.106l1.209,32.4H885.66l.608-32.379a1.246,1.246,0,0,1,1.29-1.179h0a1.246,1.246,0,0,1,1.283,1.157Z" transform="translate(-948.764 -554.519)" opacity="0.15"/>
      <path id="Path_242" data-name="Path 242" d="M860.6,735.833a44.632,44.632,0,0,0-7.459,14.747c-1.994,6.784-5.5,17.209-8.445,18.047-4.389,1.253-8.779,13.8,2.506,16.312s20.7-10.054,20.7-10.054.63-21.954,4.389-25.714-3.136-16.312-6.273-17.565C864.756,731.14,862.651,733.186,860.6,735.833Z" transform="translate(-936.978 -549.242)" fill="#5f5d7e"/>
      <path id="Path_243" data-name="Path 243" d="M844.374,783.041a15.1,15.1,0,0,0,8.808-.8,19.686,19.686,0,0,0,12.323-16.912c.534-6.718,1.661-15.748,3.952-18.039,2.966-2.966-.741-11.418-3.93-15.459a1.7,1.7,0,0,1,1.416-.222c3.136,1.253,10.039,13.8,6.273,17.565s-4.382,25.713-4.382,25.713-9.409,12.545-20.7,10.039a10.38,10.38,0,0,1-4.493-2.069C843.907,782.93,844.122,783,844.374,783.041Z" transform="translate(-937.905 -549.243)" opacity="0.1"/>
      <path id="Path_244" data-name="Path 244" d="M881.211,755.6l1.209,32.4H878l.608-32.379a1.246,1.246,0,0,1,1.29-1.179h0A1.246,1.246,0,0,1,881.211,755.6Z" transform="translate(-946.786 -555.162)" fill="#5f5d7e"/>
      <path id="Path_245" data-name="Path 245" d="M881.211,755.6l1.209,32.4H878l.608-32.379a1.246,1.246,0,0,1,1.29-1.179h0A1.246,1.246,0,0,1,881.211,755.6Z" transform="translate(-946.786 -555.162)" opacity="0.15"/>
      <path id="Path_246" data-name="Path 246" d="M810.79,272.648l25.091,39.519,29.48,3.767s18.188-35.753,17.565-37.636-10.039-5.642-18.818-12.545S865.991,230,865.991,230l-28.85,2.506c.111.386.222.741.3,1.171,1.149,4.871.741,10.276-.141,15.029A84.517,84.517,0,0,1,834,260.733C832.744,264.492,810.79,272.648,810.79,272.648Z" transform="translate(-929.408 -419.756)" fill="#fdc2cc"/>
      <path id="Path_247" data-name="Path 247" d="M856.47,548.07s1.483,7.77,3.522,17.869a143.938,143.938,0,0,0,27.219-8.69v-6.043Z" transform="translate(-941.218 -501.895)" opacity="0.1"/>
      <path id="Path_248" data-name="Path 248" d="M809.94,552.3a94.179,94.179,0,0,1,5.094,13.22c8.727,3.937,19.582,3.826,29.91,2.069l-.512-11.53Z" transform="translate(-929.202 -502.988)" opacity="0.1"/>
      <path id="Path_249" data-name="Path 249" d="M795.826,386.3c-5.983,10.076-6.9,24.572-6.339,36.524a119.373,119.373,0,0,0,5.012,28.309,132.349,132.349,0,0,1,5.116,36.783c21.324,23.207,74.011-3.136,74.011-3.136s-4.389-25.713,0-43.909c3.055-12.649,3.707-23.793.608-34.47a54.334,54.334,0,0,0-6.25-13.828c-.831-1.32-1.639-2.78-2.417-4.345-7.266-14.7-11.463-38.837.222-52.154a24.362,24.362,0,0,1,4.078-3.707c10.188-7.377,14.829-15.57,16.786-22.5a30.258,30.258,0,0,0,.741-13.25c-1.253-6.9-18.818-13.176-18.818-13.176.63,20.7-25.713,38.259-25.713,38.259s-30.11-38.889-35.122-40.142-21.954,8.156-23.207,11.292,13.8,26.344,13.8,26.344S807.749,366.234,795.826,386.3Z" transform="translate(-922.598 -433.008)" fill="#d39999"/>
      <path id="Path_250" data-name="Path 250" d="M897.827,338.092c10.188-7.377,14.829-15.57,16.786-22.5-.489-10.38-2.966-11.989-2.966-11.989s-20.724,20.064-18.84,26.989c.43,1.594.741,5.761.942,11.24a24.358,24.358,0,0,1,4.078-3.737Z" transform="translate(-950.573 -438.765)" opacity="0.1"/>
      <path id="Path_251" data-name="Path 251" d="M852.021,512.615c4.389,13.176,26.344-10.039,26.974-20.071.4-6.421,7.481-31.593,12.523-48.891a54.332,54.332,0,0,0-6.25-13.828c-.83-1.32-1.639-2.78-2.417-4.345-2.38,5.85-11.937,29.828-11.381,36.961.63,8.156-3.767,20.071-3.767,20.071S847.632,499.44,852.021,512.615Z" transform="translate(-939.904 -470.222)" opacity="0.1"/>
      <path id="Path_252" data-name="Path 252" d="M902.639,303.59s6.9,4.389,0,46.415l-4.389,45.162s-16.935,55.824-17.565,65.863-22.577,33.239-26.974,20.071,15.682-30.11,15.682-30.11,4.389-11.915,3.767-20.071,11.915-38.259,11.915-38.259.63-55.193-1.253-62.1S902.639,303.59,902.639,303.59Z" transform="translate(-940.335 -438.732)" fill="#fdc2cc"/>
      <path id="Path_253" data-name="Path 253" d="M793.456,296.82s-8.156,1.883,0,43.909l5.02,45.792s11.292,65.863,10.662,73.4,24.468,26.974,26.344,16.312-12.545-28.227-12.545-28.227-6.287-13.821-6.287-39.542l-1.253-20.7-8.771-74.634Z" transform="translate(-924.006 -436.985)" opacity="0.1"/>
      <path id="Path_254" data-name="Path 254" d="M791.736,296.82s-8.156,1.883,0,43.909l5.02,45.792s11.292,65.863,10.662,73.4,24.468,26.974,26.344,16.312-12.545-28.227-12.545-28.227-6.273-13.8-6.273-39.519l-1.253-20.7-8.764-74.656Z" transform="translate(-923.562 -436.985)" fill="#fdc2cc"/>
      <path id="Path_255" data-name="Path 255" d="M787.465,298.179s-3.767,20.071,22.577,26.974-3.136-23.845-3.136-23.845S796.874,286.264,787.465,298.179Z" transform="translate(-923.351 -436.181)" opacity="0.1"/>
      <path id="Path_256" data-name="Path 256" d="M788.305,297.338S784.546,317.4,810.89,324.3s-3.136-23.838-3.136-23.838S797.714,285.416,788.305,297.338Z" transform="translate(-923.568 -435.963)" fill="#d39999"/>
      <path id="Path_257" data-name="Path 257" d="M912.039,298.179s3.767,20.071-22.577,26.974,3.129-23.845,3.129-23.845S902.6,286.264,912.039,298.179Z" transform="translate(-946.909 -436.181)" opacity="0.1"/>
      <path id="Path_258" data-name="Path 258" d="M911.185,297.338s3.8,20.064-22.577,26.966,3.136-23.838,3.136-23.838S901.776,285.416,911.185,297.338Z" transform="translate(-946.685 -435.963)" fill="#d39999"/>
      <path id="Path_259" data-name="Path 259" d="M846.55,249.134c3.463,1.008,7.34-7.1,11.433-7.1,4.337,0,8.423,8.682,12.041,6.844a108.713,108.713,0,0,1,4.582-17.194l-27.916,2.462C847.833,238.983,847.432,244.381,846.55,249.134Z" transform="translate(-938.657 -420.197)" opacity="0.1"/>
      <circle id="Ellipse_17" data-name="Ellipse 17" cx="26.655" cy="26.655" r="26.655" transform="translate(-114.697 -217.022)" fill="#fdc2cc"/>
      <path id="Path_260" data-name="Path 260" d="M815.3,196.7c1.854,2.61,4.775,4.449,7.5,6.436A82.363,82.363,0,0,1,832.3,211.1a28.1,28.1,0,0,1,5.316,6.584c2.113,3.945,2.395,8.408,2.647,12.753l2.588,44.88a28.645,28.645,0,0,1-.415,8.9,30.4,30.4,0,0,1-3.211,7.029c-3.418,6.065-6.932,12.249-12.434,17.053-1.839,1.594-4.078,3.655-3.107,5.746.786,1.683,3.2,2.224,5.279,2.469,8.712,1.171,18.366,2.172,25.7-2.076,2.766-1.6,5.057-3.9,8.156-4.894,4.315-1.372,9.075.059,13.672.052,4.879,0,9.535-1.624,14.088-3.225a5.048,5.048,0,0,0,2.313-1.3,3.862,3.862,0,0,0,.66-1.772c.69-3.641,1.342-7.415.215-10.981-1.224-3.863-4.449-7.207-4.812-11.2-.475-5.546,4.641-10.061,8.319-14.621,7.83-9.706,9.572-23.682,1.535-33.254-4.145-4.938-5.442-10.262-9.023-15.519-3.277-4.812-3.9-10.588-4.686-16.134a197.58,197.58,0,0,0-4.019-20.486c-.5-1.987-3.262-3.2-4.634-4.857-2.654-3.188-10.38-3.077-14.829-3.789-7.489-1.186-15.57-2.3-22.414.645-4.745,2.046-8.156,5.783-11.863,9.068C822.092,186.85,809.354,188.318,815.3,196.7Z" transform="translate(-930.166 -404.622)" opacity="0.1"/>
      <path id="Path_261" data-name="Path 261" d="M816.149,195.014c1.854,2.61,4.775,4.449,7.5,6.436a82.372,82.372,0,0,1,9.505,7.971A28.1,28.1,0,0,1,838.467,216c2.113,3.945,2.395,8.408,2.647,12.753l2.61,44.865a28.645,28.645,0,0,1-.415,8.9,30.4,30.4,0,0,1-3.211,7.029c-3.418,6.065-6.932,12.249-12.434,17.053-1.839,1.594-4.078,3.655-3.107,5.746.786,1.683,3.2,2.224,5.279,2.469,8.712,1.171,18.366,2.172,25.7-2.076,2.766-1.6,5.057-3.9,8.156-4.894,4.315-1.372,9.075.059,13.672.052,4.879,0,9.535-1.624,14.088-3.225a5.048,5.048,0,0,0,2.313-1.3,3.862,3.862,0,0,0,.66-1.772c.69-3.641,1.342-7.415.215-10.981-1.223-3.863-4.449-7.207-4.812-11.2-.475-5.546,4.641-10.061,8.319-14.621,7.83-9.706,9.572-23.682,1.535-33.254-4.145-4.938-5.442-10.262-9.023-15.519-3.277-4.812-3.9-10.588-4.686-16.134a197.611,197.611,0,0,0-4.019-20.486c-.5-1.987-3.262-3.2-4.634-4.856-2.654-3.188-10.38-3.077-14.829-3.789-7.489-1.186-15.57-2.3-22.414.645-4.745,2.046-8.156,5.783-11.863,9.068C822.9,185.16,810.2,186.628,816.149,195.014Z" transform="translate(-930.385 -404.185)" fill="#865a61"/>
    </g>
  </g>
</svg>
