<svg xmlns="http://www.w3.org/2000/svg" xmlns:xlink="http://www.w3.org/1999/xlink" width="800" height="636.003" viewBox="0 0 800 636.003">
  <defs>
    <linearGradient id="linear-gradient" x1="0.5" y1="1" x2="0.5" gradientUnits="objectBoundingBox">
      <stop offset="0" stop-color="gray" stop-opacity="0.251"/>
      <stop offset="0.54" stop-color="gray" stop-opacity="0.122"/>
      <stop offset="1" stop-color="gray" stop-opacity="0.102"/>
    </linearGradient>
  </defs>
  <g id="Group_4" data-name="Group 4" transform="translate(-649.559 129.95)">
    <path id="Path_37" data-name="Path 37" d="M560.643,156.548c-50.619-1.759-98.837-18.094-144.872-35.969S324.137,82.9,274.73,73.427c-31.778-6.091-68.123-6.951-93.722,10.079-24.645,16.421-32.607,44.688-36.885,70.945-3.222,19.752-5.115,40.536,3.715,59.029,6.124,12.839,17,23.63,24.52,35.969,26.178,42.788,7.68,95.553-20.687,137.332-13.3,19.6-28.743,38.315-39,59.161s-15.017,44.766-6.038,66.05c8.908,21.112,30.127,36.939,53.106,48.081,46.685,22.637,101.676,29.112,155.337,32.779,118.75,8.124,238.125,4.606,357.187,1.087,44.065-1.306,88.317-2.627,131.662-9.438,24.074-3.785,48.922-9.782,66.4-24.279C892.5,541.825,898,510.664,883.143,487.6c-24.942-38.7-93.855-48.308-111.312-89.845-9.589-22.856.266-48.316,14.2-69.522,29.908-45.478,80.034-85.38,82.678-137.363,1.814-35.711-22.29-71.461-59.551-88.359C770.111,84.734,715.941,86.986,687.143,116.3,657.469,146.507,605.333,158.1,560.643,156.548Z" transform="translate(558.092 -179.019)" fill="#c2d7d8" opacity="0.1"/>
    <path id="Path_38" data-name="Path 38" d="M353.831,627.073,85.793,625.765,59.16,563.3l94.175-6.836-16.414-68.49,186.267-24.143L144.823,401.823l15.756-3.743,286.809,46.79-15.8,106.885-22.577,58.74Z" transform="translate(636.726 -216.899)" fill="#6c63ff"/>
    <path id="Path_39" data-name="Path 39" d="M187,698.769s16.445-2.631,26.312,8.99c0,0-7.236,5.7-22.8-2.193Z" transform="translate(539.631 -316.25)" fill="#6c63ff"/>
    <path id="Path_40" data-name="Path 40" d="M182.929,698.51S172.435,711.423,177.6,725.8c0,0,8.551-3.422,9.483-20.854Z" transform="translate(541.979 -316.249)" fill="#6c63ff"/>
    <path id="Path_41" data-name="Path 41" d="M172.76,670.243s6.578-12.068,32.89,4.824c0,0-3.508,8.113-15.129,7.455S175.83,676.6,172.76,670.243Z" transform="translate(542.72 -309.045)" fill="#6c63ff"/>
    <path id="Path_42" data-name="Path 42" d="M166.443,670.286s-13.649-1.566-14.973,29.679c0,0,8.653,1.793,14.8-8.089S169.9,676.449,166.443,670.286Z" transform="translate(547.337 -309.975)" fill="#6c63ff"/>
    <path id="Path_43" data-name="Path 43" d="M160.44,635.255s7.674-21.269,35.521-6.139c0,0-6.359,19.515-32.671,13.375Z" transform="translate(545.392 -299.813)" fill="#61b087"/>
    <path id="Path_44" data-name="Path 44" d="M149.52,595.081s14.472-21.488,40.126-1.566c0,0-8.99,20.173-37.933,9.209Z" transform="translate(547.76 -291.396)" fill="#61b087"/>
    <path id="Path_45" data-name="Path 45" d="M145.6,556.79s16.884-19.742,42.287,0c0,0-16.006,17.322-42.287,5.043Z" transform="translate(548.611 -283.324)" fill="#61b087"/>
    <path id="Path_46" data-name="Path 46" d="M142.24,519.06s17.1-20.611,41.441-1.1c0,0-19.3,18.2-41.441,5.92Z" transform="translate(549.339 -274.947)" fill="#61b087"/>
    <path id="Path_47" data-name="Path 47" d="M144.2,484.27s18.011-26.531,40.784-8.551c0,0-19.3,22.8-40.784,13.595Z" transform="translate(548.914 -266.212)" fill="#61b087"/>
    <path id="Path_48" data-name="Path 48" d="M149.52,445.642s19.076-26.312,41.222-6.139c0,0-22.584,22.8-41.222,10.963Z" transform="translate(547.76 -258.024)" fill="#61b087"/>
    <path id="Path_49" data-name="Path 49" d="M157.367,409.9s22.584-24.73,42.287-14.879c0,0-23.532,26.265-43.274,21.441Z" transform="translate(546.272 -249.485)" fill="#61b087"/>
    <path id="Path_50" data-name="Path 50" d="M167.208,375.52s26.061-30.29,41.222-20.173c0,0-19.2,23.493-43.07,25.842Z" transform="translate(544.325 -240.897)" fill="#61b087"/>
    <path id="Path_51" data-name="Path 51" d="M181.422,338.009s22.812-24.73,39.476-18.591c0,0-19.515,25.654-42.538,26.312Z" transform="translate(541.505 -233.305)" fill="#61b087"/>
    <path id="Path_52" data-name="Path 52" d="M195.136,302.109s25.216-23.681,36.179-19.515c0,0-18.2,26.312-37.275,24.777Z" transform="translate(538.104 -225.386)" fill="#61b087"/>
    <path id="Path_53" data-name="Path 53" d="M208.32,267.347s21.707-28.293,33.556-26.1c0,0-13.164,25.224-33.556,28.975Z" transform="translate(535.006 -216.458)" fill="#61b087"/>
    <path id="Path_54" data-name="Path 54" d="M222.081,224.067s19.186-21.684,29.554-21.637c0,0-15.145,28.975-30.345,28.708Z" transform="translate(532.193 -208.026)" fill="#61b087"/>
    <path id="Path_55" data-name="Path 55" d="M229.927,187.889l18.536-45.169s.924,40.831-20.893,53.548Z" transform="translate(530.831 -194.915)" fill="#61b087"/>
    <path id="Path_56" data-name="Path 56" d="M240.155,125.491s3.07-37.722,1.1-40.791c0,0,13.25,31.363-1.222,57.456Z" transform="translate(528.128 -182.33)" fill="#61b087"/>
    <path id="Path_57" data-name="Path 57" d="M150.751,637.153s-19.217-11.911-31.661,17.228c0,0,17.1,11.355,33.924-9.8Z" transform="translate(554.361 -302.226)" fill="#61b087"/>
    <path id="Path_58" data-name="Path 58" d="M139.034,595.8s-23.571-10.752-35,19.671c0,0,18.207,12.53,37.15-11.981Z" transform="translate(557.627 -293.34)" fill="#61b087"/>
    <path id="Path_59" data-name="Path 59" d="M132.487,559.1s-16.884-19.742-42.287,0c0,0,16.006,17.322,42.287,5.043Z" transform="translate(560.627 -283.828)" fill="#61b087"/>
    <path id="Path_60" data-name="Path 60" d="M130.021,519.06s-17.1-20.611-41.441-1.1c0,0,19.3,18.2,41.441,5.92Z" transform="translate(560.979 -274.947)" fill="#61b087"/>
    <path id="Path_61" data-name="Path 61" d="M133.654,483.754s-12-29.719-38.074-16.938c0,0,14.1,26.351,37.009,21.872Z" transform="translate(559.46 -264.941)" fill="#61b087"/>
    <path id="Path_62" data-name="Path 62" d="M140.822,443.741S128.9,413.505,102.45,427.523c0,0,16.194,27.714,37.2,20.885Z" transform="translate(557.97 -256.266)" fill="#61b087"/>
    <path id="Path_63" data-name="Path 63" d="M153.515,404.846s-4.7-33.148-26.625-36.116c0,0,4.652,34.957,23.673,42.091Z" transform="translate(552.669 -244.272)" fill="#61b087"/>
    <path id="Path_64" data-name="Path 64" d="M162.9,370.312s-1.832-39.938-19.961-41.332c0,0,.611,30.314,17.917,46.986Z" transform="translate(549.188 -235.611)" fill="#61b087"/>
    <path id="Path_65" data-name="Path 65" d="M178.38,331.678s-5.4-33.211-22.71-37.268c0,0,2.146,32.162,20.995,45.42Z" transform="translate(546.426 -228.077)" fill="#61b087"/>
    <path id="Path_66" data-name="Path 66" d="M194.665,297.009s-.18-34.6-10.752-39.679c0,0-6.555,31.324,7.69,44.1Z" transform="translate(540.627 -219.995)" fill="#61b087"/>
    <path id="Path_67" data-name="Path 67" d="M205.788,262.853s-1.48-35.623-12.428-40.643c0,0-3.743,28.191,10.791,42.976Z" transform="translate(538.345 -212.341)" fill="#61b087"/>
    <path id="Path_68" data-name="Path 68" d="M221.361,223.782s-.063-28.975-7.878-35.772c0,0-7.768,31.739,3.8,41.6Z" transform="translate(534.44 -204.887)" fill="#61b087"/>
    <path id="Path_69" data-name="Path 69" d="M226.5,185.223,218.9,137s-10.329,39.515,7.964,56.931Z" transform="translate(533.343 -193.674)" fill="#61b087"/>
    <path id="Path_70" data-name="Path 70" d="M226,127.392s-19.515-32.42-19.115-36.022c0,0,2.075,33.979,26.625,50.9Z" transform="translate(535.318 -183.777)" fill="#61b087"/>
    <path id="Path_71" data-name="Path 71" d="M226.811,111.354S208.392,65.308,200.06,61.58c0,0,26.312,13.375,28.285,48.458Z" transform="translate(536.798 -177.315)" fill="#61b087"/>
    <path id="Path_72" data-name="Path 72" d="M220.821,213.832l-1.261-.384c15.544-50.69,19.421-83.008,10.924-91.113l.9-.955C240.4,129.931,236.741,161.9,220.821,213.832Z" transform="translate(532.568 -190.286)" fill="#444053"/>
    <path id="Path_73" data-name="Path 73" d="M165.994,357.1l-1.864-.666c1.652-4.644,3.43-9.358,5.294-14,16.226-40.439,30.04-78.059,38.9-106.94l1.621-.783c-8.872,28.935-22.444,68-38.685,108.49C169.4,347.758,167.63,352.448,165.994,357.1Z" transform="translate(544.591 -215.095)" fill="#444053"/>
    <path id="Path_74" data-name="Path 74" d="M199.944,668.782c-.251-.274-25.443-28.646-43.008-77.08a285.187,285.187,0,0,1-16.97-88.317c-1.206-37.69,6.7-79.774,20.251-118l1.472,1.723c-30.415,85.8-18.332,159.329-2.3,203.6,17.377,48,42.287,76.054,42.53,76.336Z" transform="translate(549.859 -248.33)" fill="#444053"/>
    <path id="Path_75" data-name="Path 75" d="M673.535,670.36s-17.753,21.668-3.657,54.425l-141.74,61.473-13.6,2.85L508.27,761.7l4.19-34.589v-18.9Z" transform="translate(469.438 -310.143)" fill="#c2d7d8"/>
    <path id="Path_76" data-name="Path 76" d="M59.16,599.154,255.341,563.39,515.29,604.8,353.831,662.929Z" transform="translate(636.726 -252.8)" fill="#6c63ff"/>
    <path id="Path_77" data-name="Path 77" d="M59.16,599.154,255.341,563.39,515.29,604.8,353.831,662.929Z" transform="translate(636.726 -252.8)" fill="#ff834c"/>
    <path id="Path_78" data-name="Path 78" d="M145.694,652.47s-18.348,34.762,2.8,66.869l290.92,63.039s-18.058-27.69.932-66.125Z" transform="translate(550.192 -306.263)" fill="#ff834c"/>
    <path id="Path_79" data-name="Path 79" d="M145.694,652.47s-18.348,34.762,2.8,66.869l290.92,63.039s-18.058-27.69.932-66.125Z" transform="translate(550.192 -306.263)" opacity="0.1"/>
    <path id="Path_80" data-name="Path 80" d="M157.519,667.86s-10.486,25.435,0,41.9" transform="translate(547.036 -309.462)" fill="#ff834c" opacity="0.1"/>
    <path id="Path_81" data-name="Path 81" d="M442.23,799.164l162.414-69.3s9.084,1.958,3.211,8.614S445.362,805.82,445.362,805.82l-294.052-69.7Z" transform="translate(547.372 -323.049)" fill="#ff834c"/>
    <path id="Path_82" data-name="Path 82" d="M442.23,799.164l162.414-69.3s9.084,1.958,3.211,8.614S445.362,805.82,445.362,805.82l-294.052-69.7Z" transform="translate(547.372 -323.049)" fill="#ff834c" opacity="0.1"/>
    <path id="Path_83" data-name="Path 83" d="M503.882,742.86s-15.662,18.794,0,46.986" transform="translate(472.012 -325.869)" fill="#ff834c" opacity="0.1"/>
    <rect id="Rectangle_21" data-name="Rectangle 21" width="74.057" height="0.783" transform="translate(981.418 440.109) rotate(-18.45)" opacity="0.1"/>
    <rect id="Rectangle_22" data-name="Rectangle 22" width="90.236" height="0.783" transform="translate(981.383 446.414) rotate(-20.82)" opacity="0.1"/>
    <rect id="Rectangle_23" data-name="Rectangle 23" width="104.59" height="0.783" transform="translate(981.846 453.846) rotate(-22.26)" opacity="0.1"/>
    <rect id="Rectangle_24" data-name="Rectangle 24" width="120.393" height="0.783" transform="translate(982.964 460.399) rotate(-24.31)" opacity="0.1"/>
    <rect id="Rectangle_25" data-name="Rectangle 25" width="131.678" height="0.783" transform="matrix(0.916, -0.401, 0.401, 0.916, 983.826, 463.588)" opacity="0.1"/>
    <rect id="Rectangle_26" data-name="Rectangle 26" width="157.575" height="0.783" transform="translate(985.627 468.944) rotate(-23.36)" opacity="0.1"/>
    <path id="Path_84" data-name="Path 84" d="M152.23,605.915,290.055,576.94l83.964,16.053L261.08,629.407Z" transform="translate(616.539 -255.701)" fill="#fff" opacity="0.3"/>
    <path id="Path_85" data-name="Path 85" d="M685.482,659.69s7.126,2.874,2.945,7.314S524,717.819,524,717.819Z" transform="translate(466.006 -307.699)" fill="#ff834c"/>
    <path id="Path_86" data-name="Path 86" d="M772.827,574.18s-17.745,21.66-3.649,54.425l-141.74,61.473-13.6,2.866-6.265-27.408,4.252-34.582V612.027Z" transform="translate(447.779 -289.127)" fill="#c2d7d8"/>
    <path id="Path_87" data-name="Path 87" d="M158.46,502.966,354.633,467.21,614.59,508.62,453.131,566.749Z" transform="translate(614.834 -231.828)" fill="#ffc038"/>
    <path id="Path_88" data-name="Path 88" d="M244.953,556.29s-18.356,34.762,2.788,66.869L538.661,686.2s-18.05-27.714.963-66.133Z" transform="translate(528.664 -285.239)" fill="#ffc038"/>
    <path id="Path_89" data-name="Path 89" d="M244.953,556.29s-18.356,34.762,2.788,66.869L538.661,686.2s-18.05-27.714.963-66.133l-92-19.914Z" transform="translate(528.664 -285.239)" opacity="0.1"/>
    <path id="Path_90" data-name="Path 90" d="M256.81,571.68s-10.478,25.427,0,41.9" transform="translate(525.499 -288.501)" fill="#ffc038" opacity="0.1"/>
    <path id="Path_91" data-name="Path 91" d="M541.52,702.984l162.422-69.3s9.076,1.958,3.2,8.614S544.653,709.64,544.653,709.64L250.6,639.945Z" transform="translate(525.471 -302.05)" fill="#ffc038"/>
    <path id="Path_92" data-name="Path 92" d="M541.52,702.984l162.422-69.3s9.076,1.958,3.2,8.614S544.653,709.64,544.653,709.64L250.6,639.945Z" transform="translate(525.471 -302.05)" opacity="0.1"/>
    <path id="Path_93" data-name="Path 93" d="M603.172,646.68s-15.662,18.794,0,46.986" transform="translate(450.379 -304.852)" fill="#ffc038" opacity="0.1"/>
    <rect id="Rectangle_27" data-name="Rectangle 27" width="74.057" height="0.783" transform="translate(1059.073 364.978) rotate(-18.45)" opacity="0.1"/>
    <rect id="Rectangle_28" data-name="Rectangle 28" width="90.236" height="0.783" transform="translate(1059.046 371.275) rotate(-20.82)" opacity="0.1"/>
    <rect id="Rectangle_29" data-name="Rectangle 29" width="104.59" height="0.783" transform="translate(1059.495 378.688) rotate(-22.26)" opacity="0.1"/>
    <rect id="Rectangle_30" data-name="Rectangle 30" width="120.393" height="0.783" transform="translate(1060.621 385.237) rotate(-24.31)" opacity="0.1"/>
    <rect id="Rectangle_31" data-name="Rectangle 31" width="131.678" height="0.783" transform="matrix(0.916, -0.401, 0.401, 0.916, 1061.469, 388.412)" opacity="0.1"/>
    <rect id="Rectangle_32" data-name="Rectangle 32" width="157.575" height="0.783" transform="translate(1063.272 393.763) rotate(-23.36)" opacity="0.1"/>
    <path id="Path_94" data-name="Path 94" d="M251.53,509.735,389.355,480.76l83.964,16.053L360.38,533.227Z" transform="translate(594.666 -234.738)" fill="#fff" opacity="0.45"/>
    <path id="Path_95" data-name="Path 95" d="M784.789,563.51s7.118,2.874,2.944,7.306-164.4,50.815-164.4,50.815Z" transform="translate(444.341 -286.736)" fill="#ffc038"/>
    <path id="Path_96" data-name="Path 96" d="M782.233,464.15s-17.753,38.9-3.657,71.653l-141.74,44.245-13.571,2.874L617,555.514l4.19-34.589V502Z" transform="translate(445.722 -265.131)" fill="#c2d7d8"/>
    <path id="Path_97" data-name="Path 97" d="M167.89,392.944,364.071,357.18l259.957,41.41L462.561,456.719Z" transform="translate(612.768 -207.837)" fill="#61b087"/>
    <path id="Path_98" data-name="Path 98" d="M254.418,446.26s-18.379,34.762,2.764,66.869L548.1,576.168s-18.058-27.714.955-66.125Z" transform="translate(526.37 -261.24)" fill="#61b087"/>
    <path id="Path_99" data-name="Path 99" d="M254.418,446.26s-18.379,34.762,2.764,66.869L548.1,576.168s-18.058-27.714.955-66.125Z" transform="translate(526.37 -261.24)" opacity="0.1"/>
    <path id="Path_100" data-name="Path 100" d="M266.249,461.65s-10.486,25.435,0,41.9" transform="translate(523.452 -264.522)" fill="#61b087" opacity="0.1"/>
    <path id="Path_101" data-name="Path 101" d="M550.96,594.689l162.414-52.076s9.084,1.958,3.211,8.614-162.492,50.118-162.492,50.118L260.04,531.65Z" transform="translate(523.403 -279.802)" fill="#61b087"/>
    <path id="Path_102" data-name="Path 102" d="M550.96,594.689l162.414-52.076s9.084,1.958,3.211,8.614-162.492,50.118-162.492,50.118L260.04,531.65Z" transform="translate(523.403 -279.802)" opacity="0.1"/>
    <path id="Path_103" data-name="Path 103" d="M612.612,536.65s-15.662,18.794,0,46.986" transform="translate(448.322 -280.871)" fill="#61b087" opacity="0.1"/>
    <rect id="Rectangle_33" data-name="Rectangle 33" width="74.057" height="0.783" transform="translate(1066.457 278.923) rotate(-18.45)" opacity="0.1"/>
    <rect id="Rectangle_34" data-name="Rectangle 34" width="90.236" height="0.783" transform="translate(1066.425 285.225) rotate(-20.82)" opacity="0.1"/>
    <rect id="Rectangle_35" data-name="Rectangle 35" width="104.59" height="0.783" transform="translate(1066.866 292.643) rotate(-22.26)" opacity="0.1"/>
    <rect id="Rectangle_36" data-name="Rectangle 36" width="120.393" height="0.783" transform="translate(1068.004 299.187) rotate(-24.31)" opacity="0.1"/>
    <rect id="Rectangle_37" data-name="Rectangle 37" width="131.678" height="0.783" transform="matrix(0.916, -0.401, 0.401, 0.916, 1068.855, 302.37)" opacity="0.1"/>
    <rect id="Rectangle_38" data-name="Rectangle 38" width="157.575" height="0.783" transform="translate(1070.655 307.728) rotate(-23.36)" opacity="0.1"/>
    <path id="Path_104" data-name="Path 104" d="M260.96,399.7,398.785,370.73l83.964,16.053L369.81,423.2Z" transform="translate(592.608 -210.757)" fill="#fff" opacity="0.3"/>
    <path id="Path_105" data-name="Path 105" d="M794.219,453.48s7.126,2.874,2.945,7.314-164.4,50.815-164.4,50.815Z" transform="translate(442.284 -262.753)" fill="#61b087"/>
    <path id="Path_106" data-name="Path 106" d="M391.642,149.909s-29.758-1.793-26.281,19.084a5.093,5.093,0,0,0,2.647,5.364s.055-1.566,3.054-1.026a13.352,13.352,0,0,0,3.242.157,6.75,6.75,0,0,0,3.955-1.629h0s8.371-3.461,11.629-17.15c0,0,2.412-2.984,2.349-3.751l-5.043,2.146s1.715,3.626.368,6.641c0,0-.164-6.508-1.136-6.359-.2,0-2.608,1.261-2.608,1.261s2.952,6.32.72,10.909c0,0,.846-7.784-1.645-10.454l-3.54,2.067s3.453,6.523,1.112,11.848c0,0,.6-8.168-1.856-11.347l-3.211,2.506s3.25,6.429,1.269,10.846c0,0-.258-9.507-1.958-10.227,0,0-2.811,2.475-3.234,3.493,0,0,2.224,4.7.838,7.134,0,0-.838-6.335-1.566-6.367,0,0-2.8,4.2-3.085,7.048a15.239,15.239,0,0,1,2.4-7.471,8.387,8.387,0,0,0-4.276,2.216s.431-2.968,4.973-3.226c0,0,2.31-3.187,2.929-3.375,0,0-4.518-.384-7.251.83,0,0,2.412-2.8,8.074-1.566l3.132-2.584s-5.936-.783-8.457.086c0,0,2.905-2.475,9.311-.673l3.453-2.06s-5.067-1.089-8.082-.7c0,0,3.179-1.715,9.092.141l2.459-1.1s-3.7-.728-4.793-.846-1.143-.415-1.143-.415a12.929,12.929,0,0,1,6.97.783S391.744,150.238,391.642,149.909Z" transform="translate(500.73 -196.466)" fill="#61b087"/>
    <path id="Path_107" data-name="Path 107" d="M926.242,259.489s-29.758-1.793-26.281,19.084a5.093,5.093,0,0,0,2.647,5.364s.055-1.566,3.054-1.026a13.8,13.8,0,0,0,3.242.157,6.727,6.727,0,0,0,3.915-1.629h0s8.379-3.461,11.629-17.15c0,0,2.412-2.984,2.349-3.751l-5.027,2.146s1.715,3.626.368,6.641c0,0-.165-6.507-1.128-6.359-.2,0-2.616,1.261-2.616,1.261s2.952,6.32.728,10.909c0,0,.846-7.784-1.652-10.454l-3.54,2.067s3.453,6.523,1.112,11.848c0,0,.6-8.168-1.856-11.347l-3.2,2.506s3.242,6.429,1.261,10.846c0,0-.258-9.507-1.958-10.227,0,0-2.8,2.475-3.234,3.493,0,0,2.224,4.7.846,7.134,0,0-.846-6.335-1.566-6.367,0,0-2.8,4.2-3.085,7.048a15.19,15.19,0,0,1,2.412-7.471,8.426,8.426,0,0,0-4.283,2.216s.439-2.968,4.973-3.226c0,0,2.31-3.187,2.929-3.383,0,0-4.511-.376-7.251.838,0,0,2.412-2.8,8.074-1.566l3.132-2.584s-5.944-.783-8.458.086c0,0,2.9-2.475,9.311-.673l3.446-2.06s-5.067-1.089-8.082-.7c0,0,3.179-1.715,9.092.141l2.467-1.1s-3.712-.728-4.8-.846-1.143-.415-1.143-.415a12.834,12.834,0,0,1,6.97.783S926.336,259.818,926.242,259.489Z" transform="translate(384.241 -220.45)" fill="#6c63ff" opacity="0.1"/>
    <path id="Path_108" data-name="Path 108" d="M453.895,309.827s-12.968-26.884-29.476-13.634a5.086,5.086,0,0,0-3.391,4.926s1.37-.713,2.349,2.169a13.873,13.873,0,0,0,1.441,2.9,6.758,6.758,0,0,0,3.359,2.663h0s7.1,5.623,20.642,1.785c0,0,3.782.65,4.4.2l-4.323-3.344s-2.349,3.266-5.623,3.555c0,0,5.607-3.313,5-4.08-.125-.157-2.349-1.668-2.349-1.668s-4.08,5.662-9.17,5.952c0,0,7.2-3.054,8.316-6.539l-3.524-2.083s-4.017,6.2-9.8,6.75c0,0,7.424-3.453,9-7.15L437,300.657s-4.033,5.967-8.857,6.4c0,0,8.176-4.863,7.972-6.7,0,0-3.532-1.237-4.628-1.12,0,0-2.991,4.221-5.811,4.221,0,0,5.114-3.829,4.8-4.448,0,0-5.027-.392-7.674.783a15.246,15.246,0,0,1,7.7-1.566,8.434,8.434,0,0,0-4.025-2.655s2.8-1.065,5.239,2.764c0,0,3.915.462,4.378.908,0,0-1.872-4.119-4.26-5.912,0,0,3.618.728,5.27,6.265l3.8,1.5s-2.185-5.576-4.2-7.338c0,0,3.571,1.323,5.129,7.831l3.477,2s-1.511-4.957-3.328-7.392c0,0,3.046,1.942,4.307,8l2.169,1.613s-1.175-3.594-1.566-4.6-.2-1.206-.2-1.206a12.85,12.85,0,0,1,2.725,6.461S453.613,310.062,453.895,309.827Z" transform="translate(488.537 -227.654)" fill="#6c63ff" opacity="0.1"/>
    <path id="Path_109" data-name="Path 109" d="M837.675,206.207s-12.96-26.884-29.476-13.634a5.1,5.1,0,0,0-3.391,4.926s1.378-.7,2.349,2.169a13.579,13.579,0,0,0,1.449,2.905,6.719,6.719,0,0,0,3.352,2.655h0s7.111,5.623,20.642,1.793c0,0,3.782.642,4.409.188l-4.3-3.352s-2.349,3.273-5.615,3.563c0,0,5.6-3.32,5-4.088-.125-.157-2.349-1.668-2.349-1.668s-4.072,5.662-9.17,5.952c0,0,7.212-3.054,8.324-6.531l-3.579-2.067s-4.009,6.194-9.8,6.75c0,0,7.424-3.461,9.006-7.157l-3.751-1.566s-4.033,5.975-8.849,6.4c0,0,8.168-4.863,7.964-6.7,0,0-3.524-1.245-4.62-1.12,0,0-2.991,4.213-5.818,4.213,0,0,5.121-3.829,4.808-4.448,0,0-5.027-.392-7.682.783a15.239,15.239,0,0,1,7.7-1.566,8.386,8.386,0,0,0-4.017-2.655s2.8-1.065,5.239,2.764c0,0,3.915.47,4.378.916,0,0-1.872-4.127-4.268-5.92,0,0,3.618.736,5.27,6.3l3.806,1.5s-2.185-5.583-4.2-7.345c0,0,3.571,1.323,5.121,7.831l3.485,2s-1.519-4.949-3.336-7.392c0,0,3.054,1.942,4.307,8l2.169,1.613s-1.167-3.594-1.566-4.6-.2-1.2-.2-1.2a12.882,12.882,0,0,1,2.717,6.461S837.432,206.458,837.675,206.207Z" transform="translate(404.909 -205.076)" fill="#6c63ff" opacity="0.1"/>
    <path id="Path_110" data-name="Path 110" d="M890.558,376.015s-12.96-26.892-29.5-13.642a5.1,5.1,0,0,0-3.391,4.926s1.378-.7,2.349,2.169a13.571,13.571,0,0,0,1.441,2.905,6.719,6.719,0,0,0,3.352,2.655h0s7.111,5.63,20.65,1.793c0,0,3.774.65,4.4.188l-4.323-3.344s-2.349,3.273-5.623,3.563c0,0,5.6-3.32,5-4.088-.125-.157-2.349-1.668-2.349-1.668s-4.072,5.662-9.17,5.959c0,0,7.212-3.062,8.324-6.539l-3.532-2.083s-4.009,6.2-9.8,6.75c0,0,7.424-3.461,9.006-7.158l-3.751-1.566s-4.033,5.967-8.849,6.4c0,0,8.176-4.863,7.972-6.7,0,0-3.532-1.245-4.628-1.12,0,0-2.991,4.213-5.818,4.213,0,0,5.121-3.829,4.808-4.448,0,0-5.027-.392-7.682.783a15.286,15.286,0,0,1,7.706-1.566,8.372,8.372,0,0,0-4.025-2.655s2.8-1.073,5.239,2.764c0,0,3.915.462,4.378.908,0,0-1.872-4.119-4.26-5.92,0,0,3.618.736,5.27,6.3l3.8,1.5s-2.185-5.583-4.2-7.338c0,0,3.571,1.316,5.121,7.831l3.485,2s-1.519-4.949-3.336-7.392c0,0,3.054,1.942,4.315,8.011l2.169,1.566s-1.175-3.594-1.566-4.6-.2-1.2-.2-1.2a12.8,12.8,0,0,1,2.717,6.461S890.316,376.25,890.558,376.015Z" transform="translate(393.39 -242.075)" fill="#6c63ff" opacity="0.1"/>
    <ellipse id="Ellipse_3" data-name="Ellipse 3" cx="18.003" cy="2.013" rx="18.003" ry="2.013" transform="translate(789.521 479.31)" fill="#c2d7d8" opacity="0.1"/>
    <ellipse id="Ellipse_4" data-name="Ellipse 4" cx="18.003" cy="2.013" rx="18.003" ry="2.013" transform="translate(671.681 445.104)" fill="#c2d7d8" opacity="0.1"/>
    <ellipse id="Ellipse_5" data-name="Ellipse 5" cx="18.003" cy="2.013" rx="18.003" ry="2.013" transform="translate(879.368 502.027)" fill="#c2d7d8" opacity="0.1"/>
    <ellipse id="Ellipse_6" data-name="Ellipse 6" cx="18.003" cy="2.013" rx="18.003" ry="2.013" transform="translate(1339.689 452.544)" fill="#c2d7d8" opacity="0.1"/>
    <ellipse id="Ellipse_7" data-name="Ellipse 7" cx="18.003" cy="2.013" rx="18.003" ry="2.013" transform="translate(1190.162 442.778)" fill="#c2d7d8" opacity="0.1"/>
    <ellipse id="Ellipse_8" data-name="Ellipse 8" cx="21.292" cy="3.657" rx="21.292" ry="3.657" transform="translate(1090.081 487.117)" fill="#c2d7d8" opacity="0.1"/>
    <path id="Path_111" data-name="Path 111" d="M685.984,790.14s-29.648,15.317-14.331,33.36a5.73,5.73,0,0,0,5.607,3.641s-.83-1.519,2.349-2.733a15.276,15.276,0,0,0,3.2-1.7,7.525,7.525,0,0,0,2.866-3.829h0s6.061-8.113,1.363-23.125c0,0,.611-4.244.078-4.933l-3.6,4.941s3.72,2.5,4.15,6.171c0,0-3.915-6.163-4.7-5.482-.172.141-1.785,2.7-1.785,2.7s6.453,4.378,6.93,10.063c0,0-3.634-7.964-7.557-9.1l-2.247,4.01s7.048,4.291,7.831,10.744c0,0-4.1-8.183-8.277-9.836l-1.652,4.237s6.8,4.323,7.424,9.695c0,0-5.685-8.982-7.729-8.7,0,0-1.284,3.978-1.112,5.208,0,0,4.8,3.211,4.887,6.367,0,0-4.432-5.6-5.114-5.231,0,0-.282,5.63,1.081,8.559a16.9,16.9,0,0,1-1.966-8.559,9.4,9.4,0,0,0-2.843,4.573s-1.276-3.093,2.929-5.944c0,0,.4-4.378.885-4.918,0,0-4.55,2.224-6.484,4.949,0,0,.713-4.064,6.883-6.085l1.566-4.291s-6.171,2.616-8.074,4.918c0,0,1.37-4.033,8.559-5.967l2.13-3.915s-5.482,1.848-8.16,3.915c0,0,2.075-3.469,8.818-5.067l1.731-2.467s-3.978,1.417-5.09,1.926-1.331.258-1.331.258a14.4,14.4,0,0,1,7.134-3.242S686.258,790.406,685.984,790.14Z" transform="translate(434.889 -336.124)" fill="#61b087"/>
    <path id="Path_112" data-name="Path 112" d="M729.972,338.876c-5.122-13.916-33.313-15.223-45.545-11.676-8.692,2.529-27.017,5.38-36.805,6.813l-.634-.6c1.269-.376,1.3-1.3,1.143-2.67a41.781,41.781,0,0,1,.078-5.419c6,1.864,11.339-2.545,11.339-2.545h0c7.048-3.132,5.153-16.539,6.5-20.2,1.01-2.741,2.1-18.888,2.584-26.939h.1l.055-2.7c.07-1.167.1-1.848.1-1.848s.689-19.687,2.036-23.673c1.253-3.665,2.271-22.13,2.428-25.059v-.384l-.1-1.707c.071-1.245.1-2.631.094-4.088,0-6.7-.7-15.129-.783-16.492v-.713c.055-2.858-.305-17.173-12.483-22.584-4.487-2-9.883-4.393-15.106-6.719-1.347-11.629-4.424-23.2-4.158-34.91,0-1.762.157-3.524.329-5.278,0,.509-.055,1.026-.063,1.566v3.414c.462-14.652,6-29.382,5.482-43.72-.047,1.4-.149,2.811-.282,4.221a45.523,45.523,0,0,0-1.5-14.4,8.522,8.522,0,0,0-2.459-4.464,10.126,10.126,0,0,0-4.291-1.7,86.31,86.31,0,0,0-11.269-2.1,17.4,17.4,0,0,0-2.537-4.926c-7.941-10.9-19.7-21.144-33.61-23.493-6.977-1.175-15-.2-19.75,4.793a14.811,14.811,0,0,0-1.394,1.41c-2.553,3.046-3.649,7.048-6.265,10.086-.172.2-.368.392-.556.587-5.121,4.581-13.1,5.536-18.794,9.648a22.559,22.559,0,0,0-2.811,2.451,47.671,47.671,0,0,0-6.14,7.463c-2.561,3.6-5.192,7.353-6.006,11.652-1.637,8.614,4.229,16.782,5.317,25.451,2.428,19.4-19.037,36.61-14.973,55.749a25.528,25.528,0,0,0,6.907,12.4c-8.371,7.58-15.5,14.934-15.5,14.934v.439h-1.323l.133,1.566h-.133l.728,8.5-.728,12.373v1.167h.047c.243,4.534,1.206,20.838,2.349,24.276,1.347,3.986,2.028,23.673,2.028,23.673s1.488,27.823,2.851,31.5-.572,17.048,6.5,20.2h0a14.878,14.878,0,0,0,7.1,2.944c-.36,2.929-.133,5.051,1.034,5.717a3.414,3.414,0,0,0,1.645.47,17.456,17.456,0,0,0-1.276,2.232,33.171,33.171,0,0,1-8.207-1.934c-7.6-3.132-32.8-10.18-40.126-5.223s-24.942,9.452-16.805,29.405,11.927,20.454,11.927,20.454A28.975,28.975,0,0,1,484.9,384.8c2.443,3.673,25.208,12.075,30.9,12.075a55.75,55.75,0,0,1,7.244.36s-6.179,5.419-5.356,8.567-1.879,28.348-1.879,28.348,6.265,6.312,8.943-1.966l.094.125c.5.681,3.211,3.759,8.309-.125a46.581,46.581,0,0,1,6.625-4.2l24.683-3.493a69.865,69.865,0,0,1,7.729-.055c3.915.321,7.76-2,10.18-3.79,5.114,1.942,10.862,4.064,13.595,4.84,5.544,1.566,31.026,8.4,36.986,6.265a8.277,8.277,0,0,0,3.211-2.287l5.685.18-2.663.532s5.184.086,12.232.18l-.3.172,8.841-.078c12.937.118,27.471.157,29.382-.274,2.991-.666,18.536-.2,23.117,0h1.277s17.079-3.406,10.031-20.736c-5.419-13.313-22.076-17.181-29.468-18.246,2.083-.415,3.876-.736,5.067-.924,5.161-.783,15.184-5.482,16-7.087s9.217-6.265,11.386-8.919S735.117,352.791,729.972,338.876ZM588.506,377.819l-.838.274-.564.188-1.081,1.065c-.861-.579-1.786-1.19-2.749-1.817C584.974,377.631,586.72,377.733,588.506,377.819Zm74.637,22.068Z" transform="translate(478.926 -173.378)" fill="url(#linear-gradient)"/>
    <path id="Path_113" data-name="Path 113" d="M686.65,338.249s11.981,31.324,18.794,28.191,4.965-16.445,6.265-20.094,2.741-31.324,2.741-31.324.658-19.577,1.958-23.54c1.206-3.641,2.185-22.005,2.349-24.895V266.2l-1.292-22.71-7.314-1.825-16.962,6.265-2.349,13.414-.916,5.239-.392,2.232Z" transform="translate(430.656 -216.614)" fill="#be6f72"/>
    <path id="Path_114" data-name="Path 114" d="M691.69,358.3s11.433,9.358,14.879,10.18,5.56,8.121,5.56,8.121" transform="translate(429.566 -241.986)" opacity="0.1"/>
    <path id="Path_115" data-name="Path 115" d="M558.107,340s-11.981,31.324-18.794,28.191-4.965-16.445-6.265-20.094-2.741-31.324-2.741-31.324-.658-19.577-1.958-23.54c-1.206-3.641-2.185-22.005-2.349-24.895v-.384l1.3-22.71,7.314-1.825,16.962,6.265,2.349,13.414.916,5.239.391,2.232Z" transform="translate(465.662 -216.996)" fill="#be6f72"/>
    <rect id="Rectangle_39" data-name="Rectangle 39" width="26.743" height="41.684" transform="translate(1074.943 -44.387)" fill="#3e373a"/>
    <rect id="Rectangle_40" data-name="Rectangle 40" width="26.743" height="41.684" transform="translate(1074.943 -44.387)" opacity="0.1"/>
    <path id="Path_116" data-name="Path 116" d="M559.2,405.9s-9.139,10.047-5.748,11.872,25.325,36.022,25.325,36.022,72.045,8.872,85.631-4.44,13.313-37.1,13.313-37.1-10.916,2.349-12.107,1.073-7.729-7.432-7.729-7.432S565.464,400.293,559.2,405.9Z" transform="translate(459.781 -251.836)" fill="#4b4b5b"/>
    <path id="Path_117" data-name="Path 117" d="M559.2,405.9s-9.139,10.047-5.748,11.872,25.325,36.022,25.325,36.022,72.045,8.872,85.631-4.44,13.313-37.1,13.313-37.1-10.916,2.349-12.107,1.073-7.729-7.432-7.729-7.432S565.464,400.293,559.2,405.9Z" transform="translate(459.781 -251.836)" opacity="0.02"/>
    <path id="Path_118" data-name="Path 118" d="M683.465,224.457l-23.493,18.794-7.1.517-2.608.188-43.8,3.211-45.42-3.32-6.758-.493-8.614-.626L527.66,225.5s12.749-13.657,23.916-22.874c4.4-3.641,8.559-6.586,11.59-7.745l.517-.18a12.89,12.89,0,0,0,4.965-3.461c8.818-9.092,16.97-31.527,16.97-31.527s38.9-20.094,34.2,6.265S637.3,185.819,637.3,185.819l7.314,3.336,2.89,1.323,7.369,3.375L671.5,201.48C684.545,207.487,683.465,224.457,683.465,224.457Z" transform="translate(465.216 -197.01)" fill="#be6f72"/>
    <circle id="Ellipse_9" data-name="Ellipse 9" cx="34.981" cy="34.981" r="34.981" transform="translate(1034.879 -85.797)" opacity="0.1"/>
    <path id="Path_119" data-name="Path 119" d="M683.16,261.083H526V260.7l1.3-22.71s12.749-13.657,23.916-22.874l98.67-3.915,4.589-4.84,16.625,7.627c13.054,6,12,22.968,12,22.968S684.89,256.619,683.16,261.083Z" transform="translate(465.577 -208.89)" opacity="0.1"/>
    <path id="Path_120" data-name="Path 120" d="M683.16,260.083H526V259.7l1.3-22.71s12.749-13.657,23.916-22.874l98.67-3.915,4.589-4.84,16.625,7.627c13.054,6,12,22.968,12,22.968S684.89,255.619,683.16,260.083Z" transform="translate(465.577 -208.672)" fill="#e7c7ca"/>
    <path id="Path_121" data-name="Path 121" d="M591.079,192.025s24.793,31.59,57.816-.65,3.657,71.912,3.657,71.912l-71.262,8.457Z" transform="translate(453.579 -204.283)" opacity="0.1"/>
    <path id="Path_122" data-name="Path 122" d="M591.079,194.025s24.793,31.59,57.816-.65,3.657,71.912,3.657,71.912l-71.262,8.457Z" transform="translate(453.579 -204.719)" fill="#e7c7ca"/>
    <path id="Path_123" data-name="Path 123" d="M652.645,202.642l2.623,40.008,2.811,13.313,2.146,10.18s5.482,78.31,3.915,82.225.783,7.048,1.112,9.131-.329,7.314-.07,9.663,0,3.391-6,2.553-14.362-2.294-14.362-2.294-21.144,1.566-28.45-1.042-21.144-2.616-21.144-2.616-20.885.525-27.667-.258-10.446,8.356-14.879,5.74,5.215-27.925,8.348-35.239-4.174-25.842-4.174-25.842l9.4-52.131,2.091-11.817v-37.15l.517-.18a12.889,12.889,0,0,0,4.965-3.461l2.349,37.385,73.611,2.616V201.35" transform="translate(460.042 -207.838)" opacity="0.1"/>
    <path id="Path_124" data-name="Path 124" d="M652.645,200.642l2.623,40.008,2.811,13.313,2.146,10.18s5.482,78.31,3.915,82.225.783,7.048,1.112,9.131-.329,7.314-.07,9.663,0,3.391-6,2.553-14.362-2.294-14.362-2.294-21.144,1.566-28.45-1.042-21.144-2.616-21.144-2.616-20.885.525-27.667-.258-10.446,8.356-14.879,5.74,5.215-27.925,8.348-35.239-4.174-25.842-4.174-25.842l9.4-52.131,2.091-11.817v-37.15l.517-.18a12.889,12.889,0,0,0,4.965-3.461l2.349,37.385,73.611,2.616V199.35" transform="translate(460.042 -207.402)" fill="#e7c7ca"/>
    <path id="Path_125" data-name="Path 125" d="M658.076,84.159a8.63,8.63,0,0,0-2.349-4.432,9.617,9.617,0,0,0-4.135-1.691,81.7,81.7,0,0,0-10.869-2.083,17.4,17.4,0,0,0-2.349-4.879c-7.674-10.838-19.029-21.057-32.389-23.368-6.993-1.214-15.1-.125-19.577,5.388-2.459,3.031-3.516,7.048-6,10.024-4.785,5.779-13.422,6.492-19.452,10.963-3.219,2.349-5.552,5.756-7.831,9.06-2.467,3.579-5,7.306-5.787,11.582-1.566,8.544,4.08,16.688,5.121,25.31,2.349,19.288-18.324,36.4-14.417,55.428,2.279,11.1,12.53,18.912,23.133,22.874,3.735,1.4,8,2.8,9.75,6.382.783,1.566.916,3.375,1.652,4.957,2.475,5.278,10.611,5.482,14.981,1.637s5.748-10.063,6.265-15.866c2.1-25.341-8.05-50.377-6.868-75.78.352-7.682,2.514-16.4,9.4-19.875,9.264-4.7,20.407,3.132,30.6,1.637a60.714,60.714,0,0,1,2.929,37.048c-1.621,6.758-4.424,13.313-4.628,20.282-.305,10.611,5.419,20.306,10.368,29.687a15.8,15.8,0,0,1,2.091,5.724,13.8,13.8,0,0,1-1.12,5.991c-2.8,7.526-7.62,14.511-8.168,22.522a3.642,3.642,0,0,0,.587,2.678,3.368,3.368,0,0,0,2.021.908c8.457,1.449,15.772-6.046,19.9-13.571a63.62,63.62,0,0,0,7.847-27.033c.854-15.944-4.863-31.629-4.511-47.589C654.678,119.931,662.877,101.662,658.076,84.159Z" transform="translate(463.086 -174.209)" opacity="0.1"/>
    <path id="Path_126" data-name="Path 126" d="M659.076,83.159a8.63,8.63,0,0,0-2.349-4.432,9.617,9.617,0,0,0-4.135-1.691,81.7,81.7,0,0,0-10.869-2.083,17.4,17.4,0,0,0-2.349-4.879c-7.674-10.838-19.029-21.057-32.389-23.368-6.993-1.214-15.1-.125-19.577,5.388-2.459,3.031-3.516,7.048-6,10.024-4.785,5.779-13.422,6.492-19.452,10.963-3.219,2.349-5.552,5.756-7.831,9.06-2.467,3.579-5,7.306-5.787,11.582-1.566,8.544,4.08,16.688,5.121,25.31,2.349,19.288-18.324,36.4-14.417,55.428,2.279,11.1,12.53,18.912,23.133,22.874,3.735,1.4,8,2.8,9.75,6.382.783,1.566.916,3.375,1.652,4.957,2.475,5.278,10.611,5.482,14.981,1.637s5.748-10.063,6.265-15.866c2.1-25.341-8.05-50.377-6.868-75.78.352-7.682,2.514-16.4,9.4-19.875,9.264-4.7,20.407,3.132,30.6,1.637a60.713,60.713,0,0,1,2.929,37.048c-1.621,6.758-4.424,13.313-4.628,20.282-.305,10.611,5.419,20.306,10.368,29.687a15.8,15.8,0,0,1,2.091,5.724,13.8,13.8,0,0,1-1.12,5.991c-2.8,7.526-7.62,14.511-8.168,22.522a3.641,3.641,0,0,0,.587,2.678,3.367,3.367,0,0,0,2.02.908c8.457,1.449,15.772-6.046,19.9-13.571a63.62,63.62,0,0,0,7.847-27.032c.854-15.944-4.863-31.629-4.511-47.589C655.678,118.931,663.877,100.662,659.076,83.159Z" transform="translate(462.868 -173.992)" fill="#3e373a"/>
    <path id="Path_127" data-name="Path 127" d="M581.79,486.624l31.065.995L608.4,464.58l-23.8,2.263Z" transform="translate(522.784 -231.189)" fill="#c3c7d9"/>
    <path id="Path_128" data-name="Path 128" d="M753.308,452.975c-2.091,2.608-10.18,7.306-10.963,8.872s-10.439,6.265-15.4,7.048-20.619,4.182-23.493,6.006c-2.06,1.316-18.591,5.482-29.452,7.792a83.6,83.6,0,0,1-8.92,1.605c-4.7.258-56.117-17.228-56.117-17.228l9.914-10.18.548-.188c2.8-.948,15.756-5.325,22.945-7.408,8.1-2.349,17.494-12,17.494-12s13.829-4.7,15.662-5.223-4.7-18.27-4.7-18.27,30.016-4.166,41.762-7.7,38.9-2.224,43.853,11.613S755.43,450.367,753.308,452.975Z" transform="translate(447.491 -252.078)" fill="#4b4b5b"/>
    <path id="Path_129" data-name="Path 129" d="M600.257,515.087s-6,6.265-12,5.748-27.009,1.566-27.009,1.566a42.108,42.108,0,0,0-10.58,6.132c-4.91,3.868-7.518.783-8,.125l-.086-.125c-2.616,8.23-8.614,1.958-8.614,1.958s2.608-25.059,1.809-28.191,5.161-8.512,5.161-8.512l7.048-1.793,17.855-4.573,25.584,8.872Z" transform="translate(463.907 -270.141)" fill="#e7c7ca"/>
    <path id="Path_130" data-name="Path 130" d="M547.946,493.26l-5.286,36.665-.086-.125c-2.616,8.23-8.614,1.958-8.614,1.958s2.608-25.059,1.809-28.191,5.161-8.512,5.161-8.512Z" transform="translate(463.938 -271.41)" opacity="0.1"/>
    <path id="Path_131" data-name="Path 131" d="M599,360.08s13.829,4.7,25.842,0" transform="translate(449.759 -242.366)" opacity="0.1"/>
    <path id="Path_132" data-name="Path 132" d="M659.29,371.42s5.74,2.866,10.18,0" transform="translate(436.634 -244.836)" opacity="0.1"/>
    <path id="Path_133" data-name="Path 133" d="M659.29,379.736s9.656,1.292,11.488-1.316" transform="translate(436.633 -246.362)" opacity="0.1"/>
    <path id="Path_134" data-name="Path 134" d="M655.29,397.232s18.136-2.349,22.639-5.482" transform="translate(437.496 -249.268)" opacity="0.1"/>
    <path id="Path_135" data-name="Path 135" d="M584.62,391.75s10.18,5.74,17.753,5.482" transform="translate(452.898 -249.268)" opacity="0.1"/>
    <path id="Path_136" data-name="Path 136" d="M673.986,497.171a83.611,83.611,0,0,1-8.92,1.605c-4.7.258-56.117-17.228-56.117-17.228l9.914-10.18.548-.188c1.566,1.1,2.85,2.052,3.767,2.772,4.315,3.4,8.481-1.042,10.047-1.042s15.137,11.222,15.137,11.222,12.53,2.874,14.62,5.482,9.4,2.091,10.7,3.915C674.072,494.093,674.119,495.479,673.986,497.171Z" transform="translate(447.564 -266.589)" opacity="0.1"/>
    <path id="Path_137" data-name="Path 137" d="M547.524,415.183s-12.67.728-19.977-2.349-31.582-10.18-38.63-5.192-24.018,9.4-16.187,29.241,11.488,20.36,11.488,20.36a28.27,28.27,0,0,1,6.265,6.5c2.349,3.657,24.276,12,29.758,12s15.137,0,28.708,9.4,25.842,10.447,25.842,10.447,17.228,7.048,22.592,8.614,29.875,8.348,35.623,6.265,9.4-15.145,9.4-15.145,2.608-11.746,1.3-13.571-8.614-1.308-10.7-3.916-14.62-5.482-14.62-5.482-13.54-11.23-15.106-11.23-5.732,4.432-10.047,1.042a229.217,229.217,0,0,0-27.025-17.228C556.294,439.717,547.524,415.183,547.524,415.183Z" transform="translate(477.624 -252.42)" fill="#4b4b5b"/>
    <path id="Path_138" data-name="Path 138" d="M536.27,427.336a14.957,14.957,0,0,1,12.835,3.391c6.265,5.223,27.346,15.709,27.346,15.709" transform="translate(463.42 -256.964)" opacity="0.1"/>
    <path id="Path_139" data-name="Path 139" d="M727.108,427s-27.933,4.229-33.148,9.969" transform="translate(429.062 -256.951)" opacity="0.1"/>
    <path id="Path_140" data-name="Path 140" d="M757.406,526.575h-1.229c-4.417-.157-19.381-.626-22.263,0-3.391.783-48.293,0-48.293,0l8.779-1.825s-3.258-11.418-1.19-12.365c0,0-11.746-7.737-2.89-12.96a27.476,27.476,0,0,1,18.4-3.023l22.232-7.533,4.268-1.449s25.059,1.308,31.841,18.536S757.406,526.575,757.406,526.575Z" transform="translate(430.838 -270.136)" fill="#e7c7ca"/>
    <path id="Path_141" data-name="Path 141" d="M769.963,526.586h-1.229c7.291-6.014,23.783-24.323-25.224-37.667l4.268-1.449s25.059,1.308,31.841,18.536S769.963,526.586,769.963,526.586Z" transform="translate(418.261 -270.147)" opacity="0.1"/>
    <circle id="Ellipse_10" data-name="Ellipse 10" cx="1.37" cy="1.37" r="1.37" transform="translate(1140.839 233.406)" fill="#4b4b5b"/>
    <circle id="Ellipse_11" data-name="Ellipse 11" cx="1.37" cy="1.37" r="1.37" transform="translate(1132.884 235.667)" fill="#4b4b5b"/>
    <g id="Group_2" data-name="Group 2" transform="translate(1001.631 -80.707)" opacity="0.1">
      <path id="Path_142" data-name="Path 142" d="M646.39,134.985a60.757,60.757,0,0,0-4.495-25.169c-10.18,1.519-21.332-6.335-30.6-1.637-6.86,3.477-9.013,12.193-9.4,19.875-.094,2.028-.11,4.056-.071,6.085,0-.72,0-1.449.071-2.169.36-7.682,2.514-16.4,9.4-19.875,9.272-4.7,20.408,3.132,30.6,1.637A60.6,60.6,0,0,1,646.39,134.985Z" transform="translate(-552.484 -106.386)"/>
      <path id="Path_143" data-name="Path 143" d="M556.482,133.988a26.085,26.085,0,0,0-.1-5.121c-.83-6.891-4.6-13.477-5.278-20.2-.877,8.105,4.284,15.889,5.278,24.112A4.894,4.894,0,0,1,556.482,133.988Z" transform="translate(-541.465 -106.822)"/>
      <path id="Path_144" data-name="Path 144" d="M595.1,224.361c-.486,5.811-1.856,12.021-6.265,15.873s-12.53,3.641-14.981-1.637c-.783-1.566-.9-3.391-1.66-4.957-1.738-3.587-6.014-4.98-9.75-6.382-10.611-3.97-20.846-11.746-23.125-22.874a24.035,24.035,0,0,1-.415-3.054,24.681,24.681,0,0,0,.415,6.97c2.279,11.1,12.53,18.9,23.125,22.874,3.735,1.4,8.011,2.8,9.75,6.382.783,1.566.916,3.375,1.66,4.957,2.467,5.278,10.6,5.482,14.981,1.637s5.74-10.063,6.265-15.873a89.478,89.478,0,0,0,.243-9.194C595.344,220.86,595.243,222.615,595.1,224.361Z" transform="translate(-538.823 -126.92)"/>
      <path id="Path_145" data-name="Path 145" d="M687.93,146.389v3.391c.439-14.566,5.779-29.209,5.255-43.47C692.777,119.5,688.228,132.982,687.93,146.389Z" transform="translate(-571.165 -106.31)"/>
      <path id="Path_146" data-name="Path 146" d="M663.068,222.885a10.1,10.1,0,0,0,.18-2.827,15.662,15.662,0,0,0-2.091-5.724c-4.526-8.614-9.687-17.432-10.3-26.993,0,.407-.055.783-.063,1.222-.313,10.6,5.411,20.306,10.36,29.687a18.8,18.8,0,0,1,1.911,4.636Z" transform="translate(-563.108 -123.886)"/>
      <path id="Path_147" data-name="Path 147" d="M685.241,217.826a63.722,63.722,0,0,1-7.9,27.032c-4.135,7.526-11.441,15.02-19.906,13.571a3.328,3.328,0,0,1-2.02-.916,1.958,1.958,0,0,1-.368-.611c-.094.611-.172,1.229-.219,1.856a3.61,3.61,0,0,0,.587,2.67,3.328,3.328,0,0,0,2.02.916c8.465,1.449,15.772-6.046,19.906-13.571a63.722,63.722,0,0,0,7.9-27.032c.094-1.832.1-3.657.047-5.482C685.272,216.785,685.272,217.3,685.241,217.826Z" transform="translate(-563.973 -130.159)"/>
    </g>
    <path id="Path_148" data-name="Path 148" d="M695.31,516.506s19.82,8.316,32.89-10.086" transform="translate(428.768 -274.256)" fill="none" stroke="#000" stroke-miterlimit="10" stroke-width="1" opacity="0.1"/>
    <path id="Path_149" data-name="Path 149" d="M700.29,536.536s16.187-10.525,36.805-.345" transform="translate(427.68 -279.771)" fill="none" stroke="#000" stroke-miterlimit="10" stroke-width="1" opacity="0.1"/>
    <path id="Path_150" data-name="Path 150" d="M561.93,532.584s6.8-15.333,24.949-3.641" transform="translate(457.837 -278.203)" fill="none" stroke="#000" stroke-miterlimit="10" stroke-width="1" opacity="0.1"/>
    <path id="Path_151" data-name="Path 151" d="M533.79,241.006l13.861-12.53s53.744-3.524,55.968,14.746c0,0,19.053-21.66,59.124-16.837l16.954,13.5-46.86,20.564-45.537,15.8-33.54-15.012Z" transform="translate(463.887 -213.1)" opacity="0.1"/>
    <path id="Path_152" data-name="Path 152" d="M533.79,242.006l13.861-12.53s53.744-3.524,55.968,14.746c0,0,19.053-21.66,59.124-16.837l16.954,13.5-46.86,20.564-45.537,15.8-33.54-15.012Z" transform="translate(463.887 -213.318)" fill="#d5d6db"/>
    <path id="Path_153" data-name="Path 153" d="M437.38,204.83l6.132,73.353,65,3.266-2.819-73.039-.055-1.229Z" transform="translate(554.228 -174.608)" opacity="0.1"/>
    <path id="Path_154" data-name="Path 154" d="M437.38,202.83l6.132,73.353,65,3.266-2.819-73.039-.055-1.229Z" transform="translate(554.228 -174.172)" fill="#ff834c"/>
    <path id="Path_155" data-name="Path 155" d="M616.759,202.83,549.71,212.885v73.681l65.522-9.468Z" transform="translate(529.747 -174.175)" opacity="0.1"/>
    <path id="Path_156" data-name="Path 156" d="M616.759,200.83,549.71,210.885v73.682l65.522-9.468Z" transform="translate(529.747 -173.739)" fill="#ff834c"/>
    <path id="Path_157" data-name="Path 157" d="M605.108,223.79l-36.218,4.025.791,12.342,35.4-3.868Z" transform="translate(525.591 -178.718)" fill="#fff" opacity="0.3"/>
    <path id="Path_158" data-name="Path 158" d="M537.854,371.986l3.688,9.922s5.482,4.7,11.48,2.349,11.23-3.516,13.837-5.8,6.265-13.775,6.265-13.775,3.657-12.53,7.306-15.662,13.313-46.289,0-42.068-23.493,43.376-23.493,43.376a9.285,9.285,0,0,1-5.74,3.132c-3.391.266-10.18-.525-11.488,2.349S533.939,366.246,537.854,371.986Z" transform="translate(463.411 -230.762)" fill="#be6f72"/>
    <path id="Path_159" data-name="Path 159" d="M632.844,257.722a22.553,22.553,0,0,1-19.663-4.9l2.827,73.031s6.656,7.2,16.837,5.56Z" transform="translate(446.674 -219.025)" opacity="0.1"/>
    <path id="Path_160" data-name="Path 160" d="M632.844,255.722a22.553,22.553,0,0,1-19.663-4.9l2.827,73.031s6.656,7.2,16.837,5.56Z" transform="translate(446.674 -218.589)" fill="#ff834c"/>
    <path id="Path_161" data-name="Path 161" d="M632.844,255.722a22.553,22.553,0,0,1-19.663-4.9l2.827,73.031s6.656,7.2,16.837,5.56Z" transform="translate(446.674 -218.589)" opacity="0.1"/>
    <path id="Path_162" data-name="Path 162" d="M640.29,244.554s27.275-8.34,34.386-7.165" transform="translate(440.756 -215.612)" opacity="0.1"/>
    <path id="Path_163" data-name="Path 163" d="M592.784,240.589s-26.437-6.265-30.854-4.487" transform="translate(457.834 -215.287)" opacity="0.1"/>
    <path id="Path_164" data-name="Path 164" d="M662.25,246.691s18.238-6.688,24.832-3.508" transform="translate(435.978 -216.712)" opacity="0.1"/>
    <path id="Path_165" data-name="Path 165" d="M650.52,458.33a59.956,59.956,0,0,1,8.99-5.583c4.7-2.263,13.313-8.136,13.313-8.136" transform="translate(438.536 -260.79)" opacity="0.1"/>
    <path id="Path_166" data-name="Path 166" d="M556.269,360.08s-11.441,9.358-14.879,10.18-5.56,8.121-5.56,8.121" transform="translate(463.527 -242.374)" opacity="0.1"/>
    <path id="Path_167" data-name="Path 167" d="M701.648,370.212,698,380.158s-5.482,4.7-11.488,2.349-11.222-3.516-13.837-5.8-6.265-13.775-6.265-13.775-3.649-12.53-7.306-15.662-13.313-46.289,0-42.068,23.493,43.376,23.493,43.376a9.285,9.285,0,0,0,5.74,3.132c3.391.266,10.18-.525,11.488,2.349S705.563,364.5,701.648,370.212Z" transform="translate(438.13 -230.381)" fill="#be6f72"/>
    <path id="Path_168" data-name="Path 168" d="M707.15,364.94s7.479,4.808,7.447,10.556" transform="translate(426.208 -243.429)" opacity="0.1"/>
    <circle id="Ellipse_12" data-name="Ellipse 12" cx="34.981" cy="34.981" r="34.981" transform="translate(1035.004 -87.512)" fill="#be6f72"/>
    <path id="Path_169" data-name="Path 169" d="M593.272,120.085c4.244-.666,7.964-3.132,12.02-4.55,9.076-3.187,19.115-1,28.3,1.872,3.524,1.1,7.1,2.349,10.8,2.349s7.62-1.511,9.507-4.7c1.738-2.929,1.4-6.735-.063-9.812s-3.916-5.552-6.39-7.886c-8.144-7.69-18.246-14.879-29.421-14.1-4.495.321-8.794,1.926-12.929,3.7a142.525,142.525,0,0,0-15.176,7.643c-3.767,2.185-10.744,5.106-12.913,9.1C572.074,112.708,585.6,121.291,593.272,120.085Z" transform="translate(454.746 -182.006)" fill="#3e373a"/>
    <path id="Path_170" data-name="Path 170" d="M653.9,117.962c-1.887,3.187-5.811,4.7-9.507,4.7s-7.275-1.2-10.807-2.3c-9.186-2.874-19.217-5.067-28.3-1.872-4.049,1.417-7.776,3.915-12.021,4.542-6.186.971-16.147-4.417-17.228-11.269-1.214,7.917,10.337,14.7,17.228,13.618,4.244-.666,7.972-3.132,12.021-4.542,9.084-3.2,19.115-1,28.3,1.872,3.532,1.1,7.1,2.349,10.807,2.3s7.62-1.5,9.507-4.7a9.17,9.17,0,0,0,1.1-5.724,8.442,8.442,0,0,1-1.1,3.375Z" transform="translate(454.747 -188.199)" opacity="0.1"/>
    <path id="Path_171" data-name="Path 171" d="M1034.46,661.63s4.644,6.069-2.146,15.239-12.381,16.907-10.125,22.624c0,0,10.243-17.024,18.575-17.267S1043.615,671.865,1034.46,661.63Z" transform="translate(357.602 -308.1)" fill="#61b087"/>
    <path id="Path_172" data-name="Path 172" d="M1034.534,661.63a7.518,7.518,0,0,1,.948,1.9c8.128,9.554,12.467,18.473,4.644,18.693-7.283.211-16.014,13.234-18.105,16.516a7.7,7.7,0,0,0,.243.783s10.243-17.024,18.575-17.267S1043.688,671.865,1034.534,661.63Z" transform="translate(357.528 -308.1)" opacity="0.1"/>
    <path id="Path_173" data-name="Path 173" d="M1048.7,671.132c0,2.138-.243,3.868-.533,3.868s-.54-1.731-.54-3.868.3-1.128.6-1.128S1048.7,668.994,1048.7,671.132Z" transform="translate(351.973 -309.84)" fill="#ffd037"/>
    <path id="Path_174" data-name="Path 174" d="M1051.777,674.353c-1.872,1.018-3.508,1.637-3.649,1.378s1.261-1.3,3.132-2.349,1.135-.282,1.276,0S1053.656,673.327,1051.777,674.353Z" transform="translate(351.868 -310.509)" fill="#ffd037"/>
    <path id="Path_175" data-name="Path 175" d="M1003.775,661.63s-4.644,6.069,2.146,15.239,12.381,16.907,10.118,22.624c0,0-10.235-17.024-18.575-17.267S994.644,671.865,1003.775,661.63Z" transform="translate(363.745 -308.1)" fill="#61b087"/>
    <path id="Path_176" data-name="Path 176" d="M1003.775,661.63a7.522,7.522,0,0,0-.948,1.9c-8.129,9.554-12.467,18.473-4.644,18.693,7.275.211,16.014,13.234,18.105,16.516a6.074,6.074,0,0,1-.251.783S1005.8,682.5,997.463,682.257,994.644,671.865,1003.775,661.63Z" transform="translate(363.745 -308.1)" opacity="0.1"/>
    <path id="Path_177" data-name="Path 177" d="M995.64,671.132c0,2.138.235,3.868.532,3.868s.54-1.731.54-3.868-.305-1.128-.595-1.128S995.64,668.994,995.64,671.132Z" transform="translate(363.25 -309.84)" fill="#ffd037"/>
    <path id="Path_178" data-name="Path 178" d="M991.544,674.353c1.872,1.018,3.508,1.637,3.649,1.378s-1.261-1.3-3.132-2.349-1.136-.282-1.277,0S989.665,673.327,991.544,674.353Z" transform="translate(364.386 -310.509)" fill="#ffd037"/>
    <ellipse id="Ellipse_13" data-name="Ellipse 13" cx="48.552" cy="7.447" rx="48.552" ry="7.447" transform="translate(1331.239 422.801)" fill="#c2d7d8" opacity="0.1"/>
    <path id="Path_179" data-name="Path 179" d="M1040.392,698.745l-.235,1.9-.329,2.678-.133,1.12-.329,2.678-.141,1.12-.321,2.67-3.72,30.463c-.329,2.717-4.769,4.84-10.133,4.84h-19.3c-5.364,0-9.8-2.122-10.133-4.84l-3.72-30.463-.329-2.67-.133-1.12-.329-2.678-.141-1.12-.321-2.678-.235-1.9c-.18-1.566,2.216-2.835,5.255-2.835h39.484C1038.176,695.91,1040.58,697.2,1040.392,698.745Z" transform="translate(364.387 -315.685)" fill="#c2d7d8"/>
    <path id="Path_180" data-name="Path 180" d="M951.645,658.53l-.321,2.678H902.459l-.329-2.678Z" transform="translate(452.9 -273.576)" fill="#9d9cb5"/>
    <path id="Path_181" data-name="Path 181" d="M951.311,663.38l-.321,2.678H903.049l-.329-2.678Z" transform="translate(452.772 -274.628)" fill="#9d9cb5"/>
    <path id="Path_182" data-name="Path 182" d="M950.979,668.23l-.329,2.678H903.641l-.321-2.678Z" transform="translate(452.641 -275.68)" fill="#9d9cb5"/>
  </g>
</svg>
